/* XPM */
static char * arrow_right_xpm[] = {
"25 20 4 1",
" 	c gray",
".	c #36363B3B4A4A",
"X	c gray37",
"o	c gainsboro",
"                         ",
"                         ",
"             .           ",
"             ..          ",
"             .X.         ",
"             .XX.        ",
"    ..........XXX.       ",
"    .XXXXXXXXXXXXX.      ",
"    .XXXXXXXXXXXXXX.     ",
"    .XXXXXXXXXXXXXXXo    ",
"    .XXXXXXXXXXXXXXo     ",
"    .XXXXXXXXXXXXXo      ",
"    ooooooooo.XXXo       ",
"             .XXo        ",
"             .Xo         ",
"             .o          ",
"             o           ",
"                         ",
"                         ",
"                         "};
