/* XPM */
static char * arrow_left_ins_xpm[] = {
"25 20 2 1",
" 	c gray",
".	c gray37",
"                         ",
"                         ",
"                         ",
"           .             ",
"          .              ",
"         . .             ",
"        . .              ",
"       . . . . . . .     ",
"      . . . . . . . .    ",
"     . . . . . . . .     ",
"    . . . . . . . . .    ",
"     . . . . . . . .     ",
"      . . . . . . . .    ",
"       . . . . . . .     ",
"        . .              ",
"         . .             ",
"          .              ",
"           .             ",
"                         ",
"                         "};
