/* XPM */
static char * arrow_left_xpm[] = {
"25 20 5 1",
" 	c gray",
".	c #36363B3B4A4A",
"X	c gray37",
"o	c gainsboro",
"O	c #5B5B62627B7B",
"                         ",
"                         ",
"                         ",
"           .             ",
"          ..             ",
"         .X.             ",
"        .XX.             ",
"       .XXX.........o    ",
"      .XXXXXXXXXXXXXo    ",
"     .XXXXXXXXXXXXXXo    ",
"    .XXXXXXXXXXXXXXXo    ",
"     OXXXXXXXXXXXXXXo    ",
"      OXXXXXXXXXXXXXo    ",
"       OXXXoooooooooo    ",
"        OXXo             ",
"         OXo             ",
"          Oo             ",
"           o             ",
"                         ",
"                         "};
