/* XPM */
static char * arrow_right_ins_xpm[] = {
"25 20 2 1",
" 	c gray",
".	c gray37",
"                         ",
"                         ",
"             .           ",
"              .          ",
"             . .         ",
"              . .        ",
"     . . . . . . .       ",
"    . . . . . . . .      ",
"     . . . . . . . .     ",
"    . . . . . . . . .    ",
"     . . . . . . . .     ",
"    . . . . . . . .      ",
"     . . . . . . .       ",
"              . .        ",
"             . .         ",
"              .          ",
"             .           ",
"                         ",
"                         ",
"                         "};
