/* XPM */
static char * axes_blank_xpm[] = {
"50 50 3 1",
" 	c gray",
".	c #5B5B62627B7B",
"X	c gray49",
"                                                  ",
"                                                  ",
"                                                  ",
"                        .                         ",
"                       ...                        ",
"                      . . .                       ",
"                     .  .  .                      ",
"                        .        .....            ",
"                        .           ..            ",
"                        .          . .  ....      ",
"                 ..  .. .         .  .  .  .      ",
"                  .   . .        .   .    .       ",
"                   . .  .       .        .        ",
"                   . .  .      .        .  .      ",
"                    .   .     .         ....      ",
"                    .   .    .                    ",
"                   .    .   .                     ",
"           .     ..     .  .          X           ",
"          .             . .            X          ",
"         .              ..              .         ",
"        ..................................        ",
"         .             ..               .         ",
"          .           . .     .. ..    X          ",
"           .         .  .      . .    X           ",
"                    .   .       .                 ",
"                   .    .       .                 ",
"                  .     .      . .                ",
"                 .      .     .. ..               ",
"                .       .                         ",
"           .   .        .                         ",
"           .  .         .                         ",
"           . .          .                         ",
"           ..        .  .  .                      ",
"           .....      . . .                       ",
"                       ...                        ",
"                        .             .           ",
"                                       .          ",
"                                        .         ",
"        ..................................        ",
"                                        .         ",
"                        .              .          ",
"                       ...            .           ",
"                        .                         ",
"                        .                         ",
"                        .                         ",
"                        .                         ",
"                         .                        ",
"                                                  ",
"                                                  ",
"                                                  "};
