/* XPM */
static char * axes_t_xpm[] = {
"37 37 3 1",
" 	c gray",
".	c red",
"X	s gray	c black",
"                                     ",
"                                     ",
"                                     ",
"                                     ",
"                                     ",
"                                     ",
"                                     ",
"                                     ",
"                                     ",
"                                     ",
"                                     ",
"                                     ",
"                  .                  ",
"                 ...                 ",
"                  .  ..              ",
"                  .  ..         X    ",
"                  . .            X   ",
"              .   ..  .           X  ",
"  XXXXXXXXXXX...........XXXXXXXXXXXX ",
"              .  ..   .           X  ",
"                . .              X   ",
"              ..  .             X    ",
"              ..  .                  ",
"                 ...                 ",
"                  .                  ",
"                                     ",
"                  X                  ",
"                 XXX                 ",
"                  X                  ",
"                  X                  ",
"                  X                  ",
"                  X                  ",
"                   X                 ",
"                                     ",
"                                     ",
"                                     ",
"                                     "};
