/* XPM */
static char * axes_z_xpm[] = {
"37 37 3 1",
" 	c gray",
".	c #5B5B62627B7B",
"X	s gray	c black",
"                                     ",
"                                     ",
"                 .                   ",
"                ...                  ",
"               . . .                 ",
"              .  .  .                ",
"                 .        XXXXX      ",
"                 .           XX      ",
"                 .          X X  XXXX",
"          ..  .. .         X  X  X  X",
"           .   . .        X   X    X ",
"            . .  .       X        X  ",
"            . .  .      X        X  X",
"             .   .     X         XXXX",
"             .   .    X              ",
"            .    .   X               ",
"    .     ..     .  X          .     ",
"   .             . X            .    ",
"  .              .X              .   ",
" ................X.................  ",
"  .             X.               .   ",
"   .           X .     .. ..    .    ",
"    .         X  .      . .    .     ",
"             X   .       .           ",
"            X    .       .           ",
"           X     .      . .          ",
"          X      .     .. ..         ",
"         X       .                   ",
"    X   X        .                   ",
"    X  X         .                   ",
"    X X          .                   ",
"    XX        .  .  .                ",
"    XXXXX      . . .                 ",
"                ...                  ",
"                 .                   ",
"                                     ",
"                                     "};
