/* XPM */
static char * axes_x_xpm[] = {
"37 37 3 1",
" 	c gray",
".	c #5B5B62627B7B",
"X	s gray	c black",
"                                     ",
"                                     ",
"                 .                   ",
"                ...                  ",
"               . . .                 ",
"              .  .  .                ",
"                 .        .....      ",
"                 .           ..      ",
"                 .          . .  ....",
"          ..  .. .         .  .  .  .",
"           .   . .        .   .    . ",
"            . .  .       .        .  ",
"            . .  .      .        .  .",
"             .   .     .         ....",
"             .   .    .              ",
"            .    .   .               ",
"    X     ..     .  .          X     ",
"   X             . .            X    ",
"  X              ..              X   ",
" XXXXXXXXXXXXXXXXXXXXXXXXXXXXXXXXXX  ",
"  X             ..               X   ",
"   X           . .     XX XX    X    ",
"    X         .  .      X X    X     ",
"             .   .       X           ",
"            .    .       X           ",
"           .     .      X X          ",
"          .      .     XX XX         ",
"         .       .                   ",
"    .   .        .                   ",
"    .  .         .                   ",
"    . .          .                   ",
"    ..        .  .  .                ",
"    .....      . . .                 ",
"                ...                  ",
"                 .                   ",
"                                     ",
"                                     "};
