/* XPM */
static char * binomial_xpm[] = {
"40 20 3 1",
" 	c gray80",
".	s gray	c black",
"X	c red",
"                                        ",
"                                        ",
" ..                                     ",
"  .               ..                    ",
"  .              .  .                   ",
"  .             .    .                  ",
"  .            .      .                 ",
"  .            .      .                 ",
"XX.X   X      .        .     X      XX  ",
" .. X         .        .             X  ",
" X.X  XX  XXX.  XX  XXXX.   XX  XX   X  ",
" X. X  X   X . X  X  X X.X   X   XX  X  ",
" X. X  X   X.X X  X  X X .   X  X X  X  ",
"XX.X  XXX X.XXX XX  XXXXXX. XXX XXX XX  ",
"  .      ..                ..           ",
"  .    ..                    ..         ",
"  .  ..                        ..       ",
" ..................................     ",
"  .                .              .     ",
"                                        "};
