/* XPM */
static char * binomial_ins_xpm[] = {
"40 20 3 1",
" 	c gray",
".	s gray	c black",
"X	c gray37",
"                                        ",
"                                        ",
" .                                      ",
"  .               .                     ",
"                                        ",
"  .             .   .                   ",
"                                        ",
"  .            .     .                  ",
"XXXX   X                     X      XX  ",
" .. X         .       .              X  ",
" X X  XX  XXX   XX  XXXXX   XX  XX   X  ",
" X. X  X   X . X  X  X . X   X   X   X  ",
" X  X  X   X X X  X  X X X   X  X X  X  ",
"XX.X  XXX X.XXX XX  XXXXX.X XXX XXX XX  ",
"         .                 .            ",
"  .    .                     .          ",
"     .                         .        ",
" .. . . . . . . . . . . . . . . . .     ",
"  .                .              .     ",
"                                        "};
