/* XPM */
static char * boxcar_ins_xpm[] = {
"40 20 3 1",
" 	c gray",
".	s gray	c black",
"X	c gray37",
"                                        ",
"                                        ",
" .                                      ",
"  .    . . . . . . . . . . . . .        ",
"      .                         .       ",
"  .                                     ",
"      .                         .       ",
"  .    XXX                              ",
"      .X  X                    X.       ",
"  .    XXX   XX  X X  XX XX  XX         ",
" .    .X  X X  X  X  X X  XX X  .       ",
"  .    X  X X  X  X  X   X X X          ",
"      .XXX   XX  X X  XX XXX X  .       ",
"  .                                     ",
"      .                         .       ",
"  .  .                           .      ",
"                                        ",
" .. . . . . . . . . . . . . . . . .     ",
"  .                .              .     ",
"                                        "};
