/* XPM */
static char * cx_modulo_xpm[] = {
"20 12 2 1",
" 	c #7E7E8888ABAB",
".	c black",
"           .        ",
"          ..        ",
"         ...        ",
"  ..... ..........  ",
" .       ...      . ",
" .        ..      . ",
" .         .      . ",
" .                . ",
" .                . ",
" .                . ",
"  ................  ",
"                    "};
