/* XPM */
static char * dy_ctr_xpm[] = {
"40 20 3 1",
" 	c gray80",
".	s gray	c black",
"X	c gray",
"                                        ",
"                                        ",
"          ...    .  ...                 ",
"             .   .     .                ",
"             .   .     .                ",
"             .  .      . ... ...        ",
"          ....  .   ....  .   .         ",
"         .   .  .  .   .  .   .         ",
"         .   .  .  .   .   . .          ",
"         .   . .   .   .   . .          ",
"         .   . .   .   .    .           ",
"          ...  .    ...     .           ",
"                           .            ",
"                           .            ",
"                         ..             ",
"            ..             ..           ",
"          ..                 ..         ",
"         .......................        ",
"          ..XXXXXXXXXXXXXXXXX..         ",
"            ..XXXXXXXXXXXXX..           "};
