/* XPM */
static char * dz_ctr_ins_xpm[] = {
"40 20 2 1",
" 	c gray",
".	s gray	c black",
"                                        ",
"                                        ",
"          . .    .  . .                 ",
"             .         .                ",
"                 .                      ",
"             .         . . . .          ",
"          . .   .   . .                 ",
"         .   .         .    .           ",
"                .  .                    ",
"         .   .         .  .             ",
"               .   .                    ",
"          . .       . .  . . .          ",
"                                        ",
"                                        ",
"            .             .             ",
"          .                 .           ",
"         . . . . . . . . . . .          ",
"          .                 .           ",
"            .             .             ",
"                                        "};
