/* XPM */
static char * dz_for_xpm[] = {
"40 20 2 1",
" 	c gray80",
".	s gray	c black",
"                                        ",
"                                        ",
"          ...    .  ...                 ",
"             .   .     .                ",
"             .   .     .                ",
"             .  .      . .....          ",
"          ....  .   .... .   .          ",
"         .   .  .  .   .    .           ",
"         .   .  .  .   .   .            ",
"         .   . .   .   .  .             ",
"         .   . .   .   . .   .          ",
"          ...  .    ...  .....          ",
"                                        ",
"                                        ",
"                        ..              ",
"                          ..            ",
"         ....................           ",
"                          ..            ",
"                        ..              ",
"                                        "};
