/* XPM */
static char * func_v1_xpm[] = {
/*adobe-times, medium-i-normal, 12-18*/
"60 20 2 1",
" 	c gray80",
".	s gray	c black",
"                                                            ",
"                                                            ",
"                                                            ",
"                                                            ",
"       ..                   .                         .     ",
"      . .                  .                           .    ",
"      .                   .   ...   ..                 .    ",
"     .....  . . ..    ..  .    ..   ..                  .   ",
"      .  .  .  .  .  . . .     ..   .                   .   ",
"     .   .  .  .  . .    .      .  .                    .   ",
"     .  .  .  .  .  .    .      .. .                    .   ",
"     .  .  . ..  . ..  . .      ...  ..                 .   ",
"     .   .. . .  ..  ..  .      ...   .     .  .  .    .    ",
"    .                     .     ..   .                 .    ",
"  . .                     .          .                .     ",
"  ..                       .        .                .      ",
"                                    .                       ",
"                                   ...                      ",
"                                                            ",
"                                                            "};
