/* XPM */
static char * hanning_ins_xpm[] = {
"40 20 3 1",
" 	c gray",
".	s gray	c black",
"X	c red",
"                                        ",
"                                        ",
" .                                      ",
"  .                                     ",
"                 .  .                   ",
"  .                                     ",
"                .    .                  ",
"  .                   .                 ",
"    X  X       .      .   X             ",
"  . X  X      .        .                ",
" .  XXXX XX  XXX   XXX   XX  XXX    XXX ",
"  . X  X  XX .X X   X X . X   X X  X  X ",
"    X  X X X  X X   X X   X   X X   XX  ",
"  . X  X XX. XXXXX XXXXX X.X XXXXX XXX  ",
"         .                  .      X  X ",
"  .    .                      .     XX  ",
"     .                          .       ",
" .. . . . . . . . . . . . . . . . .     ",
"  .                .              .     ",
"                                        "};
