/* XPM */
static char * hanning_xpm[] = {
"40 20 4 1",
" 	c gray80",
".	s gray	c black",
"X	c red",
"o	c gray",
/*X*/
"                                        ",
"                                        ",
" ..                                     ",
"  .                                     ",
"  .              ....                   ",
"  .             .    .                  ",
"  .             .    .                  ",
"  .            .      .                 ",
"  . X  X       .      .   X             ",
" .. X  X      .        .                ",
"  . XXXX XX  X.X   XXX . XX  XXX    XXX ",
"  . X  X  XX .X X   X X .oX   X X  X  X ",
"  . X  X X X.oX X   X X  .X   X X   XX  ",
"  . X  X XX. XXXXX XXXXX X.X XXXXX XXX  ",
"  .      ..                ..      X  X ",
"  .    ..                    ..     XX  ",
"  .  ..                        ..       ",
" ..................................     ",
"  .                .              .     ",
"                                        "};
