/* XPM */
static char * int_def_x_xpm[] = {
"40 20 3 1",
" 	c gray80",
".	s gray	c black",
"X	c gray",
/**xpm*/
"               ..                       ",
"           ...  .                       ",
"         .. .. . ...                    ",
"         .     ..  .      ...           ",
"         .     .   .       ..           ",
"        ..     .  .        ..           ",
"        ..    .   .       ..            ",
"        ..     ...        ..            ",
"        ..             .. ..  ...  ..   ",
"        ..            .. ...    ...     ",
"        ..           ..  ..     ..      ",
"        ..           ..  ..     ..      ",
"        ..          ..   ..     ..      ",
"        ..          ..  ...    . . .    ",
"        .     ...   ..  .. .  .  ...    ",
"        .    .  .    ... .. ..   ..     ",
"        .    .  .                       ",
"    .. .    .  ..                       ",
"    ...     . .. .                      ",
"            ..X..                       "};
