/* XPM */
static char * landscape_sel_xpm[] = {
"26 19 3 1",
" 	c gray80",
".	s gray	c black",
"X	c white",
/**/
"                          ",
"                          ",
"     ............         ",
"     .XXXXXXXXXXX..       ",
"     .XXXXXXXXXXX.X.      ",
"     .XXXXXXXXXXX.XX.     ",
"     .XXXXXXXXXXX.XXX.    ",
"     .XXXXXXXXXXX.....    ",
"     .XXXXXXXXXXXXXXX.    ",
"     .XXXXXXXXXXXXXXX.    ",
"     .XXXXXXXXXXXXXXX.    ",
"     .XXXXXXXXXXXXXXX.    ",
"     .XXXXXXXXXXXXXXX.    ",
"     .XXXXXXXXXXXXXXX.    ",
"     .................    ",
"                          ",
"                          ",
"                          ",
"                          "};
