/* XPM */
static char * lines_triple_xpm[] = {
"34 19 2 1",
" 	c gray80",
".	s gray	c black",
/*.*/
"                                  ",
"                               .. ",
"                             .... ",
"                           ...... ",
"                         ......   ",
"                       ......     ",
"                     ......       ",
"                   ......         ",
"                 ......           ",
"               ......             ",
"             ......               ",
"           ......                 ",
"         ......                   ",
"       ......                     ",
"     ......                       ",
"   ......                         ",
" ......                           ",
" ....                             ",
"                                  "};
