/* XPM */
static char * lines_4_xpm[] = {
"67 19 10 1",
" 	c gray80",
".	c #434348485A5A",
"X	c blue",
"o	c #A2A2A2A2A2A2",
"O	c light grey",
"+	c gray85",
"@	s gray	c black",
"#	c white",
"$	c #72729F9FFFFF",
"%	c #A9A9A9A9A9A9",
/*gray80*/
"                                                                   ",
"       ....................    XX             .........            ",
"       .oooooooooooooooooo.  XXXX             .OOOOOO.+.        @@ ",
"       .oo..............oo.XXXX               .OOOOOO.##.     @@@@ ",
"       .o.$$$$$$$$$$$$$$.XXXX                 .OOOOOO.###.  @@@@   ",
"       .o.$$$$$$$$$$$$$XXXX                   .OOOOOO...... @@     ",
"       .o.$$$$$$$$$$$XXXX%.                   .OOOOOOOOO@@.        ",
"       .o.$$$$$$$$$XXXX$.o.                   .OOOOOOOOO@@.        ",
"       .o.$$$$$$$XXXX$$$.o.                   .OOOOO@@OOOO.        ",
"       .o.$$$$$XXXX$$$$$.o.                   .OOO@@@@OOOO.        ",
"       .o.$$$XXXX$$$$$$$.o.                   .O@@@@OOOOOO.        ",
"       .o.$XXXX$$$$$$$$$.o.                   .O@@OOOOOOOO.        ",
"       .oXXXX...........oo.                 @@.OOOOOOOOOOO.        ",
"       XXXXooooooooooooooo.                 @@.OOOOOOOOOOO.        ",
"     XXXX..................             @@    .OOOOOOOOOOO.        ",
"   XXXX  ................             @@@@    .OOOOOOOOOOO.        ",
" XXXX                               @@@@      .OOOOOOOOOOO.        ",
" XX                                 @@        .............        ",
"                                                                   "};
