/* XPM */
static char * lines_1_ins_xpm[] = {
"67 19 9 1",
" 	s None	c None",
".	c gray80",
"X	c #434348485A5A",
"o	s gray	c black",
"O	c #7E7E8888ABAB",
"+	c #A2A2A2A2A2A2",
"@	c gray85",
"#	c #72729F9FFFFF",
"$	c #A9A9A9A9A9A9",
/*X*/
"...................................................................",
"........X.X.X.X.X.X.X.X.X.X.....o...........XXXXXXXXX...........oo.",
".......XO+O+O+O+O+O+O+O+O+...o.o............X......X@X........oooo.",
"........+OXOXOXOXOXOXOXO+OX.o.o.............X......X  X.....oooo...",
".......XOXO#O#O#O#O#O#O#OoOoo...............X......X   X..oooo.....",
"........+O#O#O#O#O#O#O#OoOo.................X......XXXXXoooo.......",
".......XOXO#O#O#O#O#OoOoX$X.................X.........oooo.........",
"........+O#O#O#O#O#OoOo#O+..................X.......ooooX..........",
".......XOXO#O#O#OoOoO#O#XOX.................X.....oooo..X..........",
"........+O#O#O#OoOoO#O#OO+..................X...oooo....X..........",
".......XOXO#OoOoO#O#O#O#X+X.................X.oooo......X..........",
"........+O#OoOoO#O#O#O#OO+..................oooo........X..........",
".......XOoOoOXOXOXOXOXOXO+................oooo..........X..........",
"........oOoO+O+O+O+O+O+O+OX.............ooooX...........X..........",
".....o.o.XOXOXOXOXOXOXOXOX............oooo..X...........X..........",
"....o.o...X.X.X.X.X.X.X.X...........oooo....X...........X..........",
".o.o..............................oooo......X...........X..........",
"..o...............................oo........XXXXXXXXXXXXX..........",
"..................................................................."};
