/* XPM */
static char * lines_6_xpm[] = {
"67 20 9 1",
" 	c gray80",
".	c #434348485A5A",
"X	c magenta",
"o	c #A2A2A2A2A2A2",
"O	c light grey",
"+	c white",
"@	s gray	c black",
"#	c #72729F9FFFFF",
"$	c #A9A9A9A9A9A9",
/*white*/
"                                                                   ",
"       ....................    XX             .........            ",
"       .oooooooooooooooooo.  XXXX             .OOOOOO.+.        @@ ",
"       .oo..............oo.XXXX               .OOOOOO.++.     @@@@ ",
"       .o.##############.XXXX                 .OOOOOO.+++.  @@@@   ",
"       .o.#############XXXX                   .OOOOOO...... @@     ",
"       .o.###########XXXX$.                   .OOOOOOOOO@@.        ",
"       .o.#########XXXX#.o.                   .OOOOOOOOO@@.        ",
"       .o.#######XXXX###.o.                   .OOOOO@@OOOO.        ",
"       .o.#####XXXX#####.o.                   .OOOOO@@OOOO.        ",
"       .o.###XXXX#######.o.                   .O@@OOOOOOOO.        ",
"       .o.#XXXX#########.o.                   @@@@OOOOOOOO.        ",
"       .oXXXX...........oo.                 @@@@OOOOOOOOOO.        ",
"       XXXXooooooooooooooo.                 @@.OOOOOOOOOOO.        ",
"     XXXX..................             @@    .OOOOOOOOOOO.        ",
"   XXXX  ................               @@    .OOOOOOOOOOO.        ",
" XXXX                               @@        .OOOOOOOOOOO.        ",
" XX                                 @@        .............        ",
"                                                                   ",
"                                                                   "};
