/* XPM */
static char * lines_ins_xpm[] = {
"67 19 9 1",
" 	s None	c None",
".	c gray80",
"X	c #434348485A5A",
"o	s gray	c black",
"O	c #7E7E8888ABAB",
"+	c #A2A2A2A2A2A2",
"@	c gray85",
"#	c #72729F9FFFFF",
"$	c #A9A9A9A9A9A9",
/*None*/
"...................................................................",
"........X.X.X.X.X.X.X.X.X.X.....o............X.X.X.X.............o.",
".......XO+O+O+O+O+O+O+O+O+...o.o............XO.O.O.O@..........oo..",
"........+OXOXOXOXOXOXOXO+OX.o.o...............O.O.OXO ......o.o....",
".......XOXO#O#O#O#O#O#O#OoOoo...............XO.O.OOXO .X...o.o.....",
"........+O#O#O#O#O#O#O#OoOo...................O.O.OXOX.X.o.o.......",
".......XOXO#O#O#O#O#OoOoX$X.................XO.O.O.O.OoOo..........",
"........+O#O#O#O#O#OoOo#O+....................O.O.O.OoOo...........",
".......XOXO#O#O#OoOoO#O#XOX.................XO.O.OoOoO.OX..........",
"........+O#O#O#OoOoO#O#OO+....................O.OoOoO.O............",
".......XOXO#OoOoO#O#O#O#X+X.................XOoOoO.O.O.OX..........",
"........+O#OoOoO#O#O#O#OO+...................oOoO.O.O.O............",
".......XOoOoOXOXOXOXOXOXO+................o.oO.O.O.O.O.OX..........",
"........oOoO+O+O+O+O+O+O+OX..............o.oO.O.O.O.O.O............",
".....o.o.XOXOXOXOXOXOXOXOX............o.o...XO.O.O.O.O.OX..........",
"....o.o...X.X.X.X.X.X.X.X............o.o......O.O.O.O.O............",
".o.o..............................o.o.......XO.O.O.O.O.OX..........",
"..o................................o.........X.X.X.X.X.X...........",
"..................................................................."};
