/* XPM */
static char * lines_double_ins_xpm[] = {
"34 19 3 1",
" 	c gray80",
".	s gray	c black",
"X	c gray85",
/*gray80*/
"                                  ",
"                               .X ",
"                             .XX. ",
"                           .XX.   ",
"                         .XX.     ",
"                       .XX.       ",
"                     .XX.         ",
"                   .XX.           ",
"                 .XX.             ",
"               .XX.               ",
"             .XX.                 ",
"           .XX.                   ",
"         .XX.                     ",
"       .XX.                       ",
"     .XX.                         ",
"   .XX.                           ",
" .XX.                             ",
" X.                               ",
"                                  "};
