/* XPM */
static char * lines_triple_ins_xpm[] = {
"34 19 3 1",
" 	c gray80",
".	s gray	c black",
"X	c gray85",
/*.*/
"                                  ",
"                               .X ",
"                             X.X. ",
"                           .X.X.X ",
"                         X.X.X.   ",
"                       .X.X.X     ",
"                     X.X.X.       ",
"                   .X.X.X         ",
"                 X.X.X.           ",
"               .X.X.X             ",
"             X.X.X.               ",
"           .X.X.X                 ",
"         X.X.X.                   ",
"       .X.X.X                     ",
"     X.X.X.                       ",
"   .X.X.X                         ",
" X.X.X.                           ",
" .X.X                             ",
"                                  "};
