/* XPM */
static char * lines_3_xpm[] = {
"67 19 10 1",
" 	c gray80",
".	c #434348485A5A",
"X	c green",
"o	c #A2A2A2A2A2A2",
"O	c light grey",
"+	c #E7E7E7E7E7E7",
"@	s gray	c black",
"#	c white",
"$	c #72729F9FFFFF",
"%	c #A9A9A9A9A9A9",
/*green*/
"                                                                   ",
"       ....................    XX             .........            ",
"       .oooooooooooooooooo.  XXXX             .OOOOOO.+.        @@ ",
"       .oo..............oo.XXXX               .OOOOOO.##.       @@ ",
"       .o.$$$$$$$$$$$$$$.XXXX                 .OOOOOO.###.  @@     ",
"       .o.$$$$$$$$$$$$$XXXX                   .OOOOOO...... @@     ",
"       .o.$$$$$$$$$$$XXXX%.                   .OOOOOOOOO@@.        ",
"       .o.$$$$$$$$$XXXX$.o.                   .OOOOOOOOO@@.        ",
"       .o.$$$$$$$XXXX$$$.o.                   .OOOOO@@OOOO.        ",
"       .o.$$$$$XXXX$$$$$.o.                   .OOOOO@@OOOO.        ",
"       .o.$$$XXXX$$$$$$$.o.                   .O@@OOOOOOOO.        ",
"       .o.$XXXX$$$$$$$$$.o.                   .O@@OOOOOOOO.        ",
"       .oXXXX...........oo.                 @@.OOOOOOOOOOO.        ",
"       XXXXooooooooooooooo.                 @@.OOOOOOOOOOO.        ",
"     XXXX..................             @@    .OOOOOOOOOOO.        ",
"   XXXX  ................               @@    .OOOOOOOOOOO.        ",
" XXXX                               @@        .OOOOOOOOOOO.        ",
" XX                                 @@        .............        ",
"                                                                   "};
