/* XPM */
static char * lines_2_xpm[] = {
"67 19 10 1",
" 	c gray80",
".	c #434348485A5A",
"X	c red",
"o	s gray	c black",
"O	c #A2A2A2A2A2A2",
"+	c light grey",
"@	c gray97",
"#	c white",
"$	c #72729F9FFFFF",
"%	c #A9A9A9A9A9A9",
/*white*/
"                                                                   ",
"       ....................    XX            .........           o ",
"       .OOOOOOOOOOOOOOOOOO.  XXXX            .++++++.@.        ooo ",
"       .OO..............OO.XXXX              .++++++.##.      ooo  ",
"       .O.$$$$$$$$$$$$$$.XXXX                .++++++.###.     o    ",
"       .O.$$$$$$$$$$$$$XXXX                  .++++++.....oo        ",
"       .O.$$$$$$$$$$$XXXX%.                  .+++++++++oooo        ",
"       .O.$$$$$$$$$XXXX$.O.                  .+++++++oooo.         ",
"       .O.$$$$$$$XXXX$$$.O.                  .+++++++oo++.         ",
"       .O.$$$$$XXXX$$$$$.O.                  .+++o+++++++.         ",
"       .O.$$$XXXX$$$$$$$.O.                  .+ooo+++++++.         ",
"       .O.$XXXX$$$$$$$$$.O.                  oooo++++++++.         ",
"       .OXXXX...........OO.                 ooo++++++++++.         ",
"       XXXXOOOOOOOOOOOOOOO.                 o.+++++++++++.         ",
"     XXXX..................            oo    .+++++++++++.         ",
"   XXXX  ................            oooo    .+++++++++++.         ",
" XXXX                              oooo      .+++++++++++.         ",
" XX                                oo        .............         ",
"                                                                   "};
