/* XPM */
static char * lines_single_ins_xpm[] = {
"34 19 3 1",
" 	c gray80",
".	s gray	c black",
"X	c gray85",
/*@*/
"                                  ",
"                                  ",
"                               .X ",
"                             .X   ",
"                           .X     ",
"                         .XX      ",
"                       .X         ",
"                     .X           ",
"                   .X             ",
"                 .X               ",
"               .X                 ",
"             .X                   ",
"           .X                     ",
"         .X                       ",
"       .X                         ",
"     .X                           ",
"   .X                             ",
" .X                               ",
"                                  "};
