/* XPM */
static char * lines_1_xpm[] = {
"67 19 8 1",
" 	s None	c None",
".	c gray80",
"X	c #434348485A5A",
"o	s gray	c black",
"O	c #A2A2A2A2A2A2",
"+	c gray85",
"@	c #72729F9FFFFF",
"#	c #A9A9A9A9A9A9",
/*gray80*/
"...................................................................",
".......XXXXXXXXXXXXXXXXXXXX....oo...........XXXXXXXXX...........oo.",
".......XOOOOOOOOOOOOOOOOOOX..oooo...........X......X+X........oooo.",
".......XOOXXXXXXXXXXXXXXOOXoooo.............X......X  X.....oooo...",
".......XOX@@@@@@@@@@@@@@Xoooo...............X......X   X..oooo.....",
".......XOX@@@@@@@@@@@@@oooo.................X......XXXXXoooo.......",
".......XOX@@@@@@@@@@@oooo#X.................X.........oooo.........",
".......XOX@@@@@@@@@oooo@XOX.................X.......ooooX..........",
".......XOX@@@@@@@oooo@@@XOX.................X.....oooo..X..........",
".......XOX@@@@@oooo@@@@@XOX.................X...oooo....X..........",
".......XOX@@@oooo@@@@@@@XOX.................X.oooo......X..........",
".......XOX@oooo@@@@@@@@@XOX.................oooo........X..........",
".......XOooooXXXXXXXXXXXOOX...............oooo..........X..........",
".......ooooOOOOOOOOOOOOOOOX.............ooooX...........X..........",
".....ooooXXXXXXXXXXXXXXXXXX...........oooo..X...........X..........",
"...oooo..XXXXXXXXXXXXXXXX...........oooo....X...........X..........",
".oooo.............................oooo......X...........X..........",
".oo...............................oo........XXXXXXXXXXXXX..........",
"..................................................................."};
