/* XPM */
static char * linear_filled_xpm[] = {
"40 20 2 1",
" 	c #7E7E8888ABAB",
".	c black",
"                                        ",
"              ...                       ",
"            .. ..                       ",
"            .          ...              ",
"            .           ..              ",
"           ..           ..              ",
"           ..          ..               ",
"           ..          ..               ",
"           ..       .. ..   .....       ",
"           ..      .. ...  .....        ",
"           ..     ..  ..      .         ",
"           ..     ..  ..     .          ",
"           ..    ..   ..     .          ",
"           ..    ..  ...    .           ",
"           .     ..  .. .  .            ",
"           .      ... ..  ....  .       ",
"           .                  ...       ",
"       .. .                             ",
"       ...                              ",
"                                        "};
