/* XPM */
static char * map_btn_sel_xpm[] = {
"68 36 36 1",
" 	c gray37",
".	c white",
"X	c #7D7DF8F8FFFF",
"o	c #7070CACAFFFF",
"O	c #5A5A7D7DFFFF",
"+	c #56566E6EFFFF",
"@	c #49494949EEEE",
"#	c #44444444D8D8",
"$	c #5F5F8D8DFFFF",
"%	c #6767ABABFFFF",
"&	c #7979E9E9FFFF",
"*	c #7575D9D9FFFF",
"=	c #212189890000",
"-	c #0A0A83830000",
";	c #4F4F96960000",
":	c #4D4D4F4FFFFF",
"?	c #383890900000",
">	c #B7B798980000",
",	c #B9B98E8E0000",
"<	c #BABA84840000",
"1	c #BCBC7B7B0000",
"2	c #6C6CBBBBFFFF",
"3	c #7E7EA4A40000",
"4	c #9595AAAA0000",
"5	c #67679D9D0000",
"6	c #ACACB1B10000",
"7	c #B4B4ACAC0000",
"8	c #63639C9CFFFF",
"9	c #B5B5A2A20000",
"0	c #40404040C2C2",
"q	c #3C3C3C3CACAC",
"w	c #333333338181",
"e	c #373737379696",
"r	c #52525F5FFFFF",
"t	c #1A1A1A1A7373",
"y	c #000000006666",
"                                                                   .",
"                                                                  ..",
"  XXXXXXXoO+@@#@+$%&&*&=&-====--&&XX=*---===;=&%O:@+**=?>,,<<<11<,..",
"  XXX--------X*2*XX--&&**&--==---X&-=X&XX---;3;=-%:Oo*-=4>,<<<11<,..",
"  X-=;554466435?3-======?=-XXX-=-----==--?XX--=??=%O2*&-;7>,<<<,5-..",
"  XX--=?;;55==?55=========???==??=--=???==XXXX-==7?*8oX?;6,,,,>>&o..",
"  X---?==?==;44679>97;?=?=??????===--==--=**--==;-&*o2*X;9,<>&ooO:..",
"  XX-=-?;4;6477446679>5=?====????==--X&&&X&&X-*-=&*o+@@@=6,,-O@##@..",
"  X---==54-344>96677764?==-=??????=-X&&&*&&&=;-***o2@##0$-4>&:###@..",
"  XXX-=-?X&*O#:-3667773;;?5===????==XX&&&&&X-==-X-=&@00qq0@O:00#@O..",
"  XXXXX-=-*8weq:*=7799>55??;?;;;??==-XXX&&&X====-=;&+#0qqq##00##+r..",
"  o&X--&8wtweq00#*-336645555;;;???==-----XXX=?;;;;;=*$@0qq0000#:@#..",
"  28#wytwwweeqeq0#--?666>935555;?=======--XX=?;55;;??-*8qqeqqq0:#0..",
"  qyytttwweeeeeqq0r*X674>,7355;;;?==???==--X=?555;;??=**#qeee0q000..",
"  yyttttttttweqeq0#:+?;769>433355;==????====??;;?X-X&=&*%r#ewweee0..",
"  yytyttttttwweeeq0@@2=5769744335;?????=??=??;?=-=&*X=-*o+@@wwweeq..",
"  yyyyyyyyyyttwwee0@##&3?59>>9433;??????=???=?=?=-XX*&&&XX%8ewwweq..",
"  yyyyyyyyyyttweeeq###X676,,,<>73;???=?=====-?;-X-X&&$:&X8qtteeeq#..",
"  yyyyyyyyyytwweeeq00#-997>>,<>945;???=====-===&&X&o@qe+*+ettteqq#..",
"  yyyyyyyyttttwweeq00#*6>>>9,,,,73;??=====???-XXX:ewtyttqqwtttwwq@..",
"  yyyyyyyyyytyyyttwwww@->>>>>><,93;?=======5-&#0qwwtyyyyyyytttwe@+..",
"  yyyyyyyyyyyyyyyttttwq=>>>>>><,73;?=?--=?;?XOqewtttyyyyyyyytwq0r+..",
"  yyyyyyyyyyyyyyyyyttte@?44>>>,>73?=?--=?5?-X0wtytyttyyttttweq0@@0..",
"  yyyyyyyyyyyyyytyytttwq=3;6>,>>75?==--==?--2etyyttwttyywttweq##0@..",
"  yyyyyyyyyyyyyttwwwwewe@8=?697945?--------&#yyyytwtyyyyyyteq#0qeq..",
"  yyyyyyyyyytytwwwwwwwweq#=&54>74;?---XXX--2wwyyyttyyyyyyteq#qewtw..",
"  tyyyyyyyyyttttwwewwwweqqoX=5,77?--XX*$*X-2ywyyyyyyyyyytte00ewttt..",
"  ewtttyyyyyytttwwwwwweeeeq-8*>>73-or:##0X-ottyyyyyyyyyytte0etyyyy..",
"  +ttttttyyyyytttwwtwwweeeq8oO3,9>-%q0q00&Xoqyyyyyyyyyyyttqqetyyyy..",
"  tqq0wwwyyyyyyyttttwweeeeeqO8O9,>=@qq*XO+o*o0yyyyyyyyyytwq0wyyyyy..",
"  wwtww$yyyyyyyyyytttwweeeqq0#0;>>3O@X--rwer*rOqyyyyyyyytwqqtyyyyw..",
"  wyytwe0yyyyyyyyyytttwweeqq000o9>,o$X--ee#0#+o@yyyyyyyytw0qwyyytt..",
"  tyyyyttyyyyyyyyyyttweeeqqq0qq#0;>6?==Xeq@$$q@qq0%#yyytwwqetyyyyt..",
"  wyyyyyyyyyyyyyyttttwweeqeq00q#qqo6;4?&O2&8:eqewwr$yyytee0etyyytt..",
" ...................................................................",
"...................................................................."};
