/* XPM */
static char * map_btn_up_ins_xpm[] = {
"68 36 37 1",
" 	c white",
".	c gray37",
"X	c #C8C8C8C8C8C8",
"o	c #7D7DF8F8FFFF",
"O	c #7070CACAFFFF",
"+	c #56566E6EFFFF",
"@	c #49494949EEEE",
"#	c #5F5F8D8DFFFF",
"$	c #7979E9E9FFFF",
"%	c #7575D9D9FFFF",
"&	c #212189890000",
"*	c #0A0A83830000",
"=	c #6767ABABFFFF",
"-	c #4D4D4F4FFFFF",
";	c #383890900000",
":	c #B9B98E8E0000",
"?	c #BABA84840000",
">	c #BCBC7B7B0000",
",	c #4F4F96960000",
"<	c #9595AAAA0000",
"1	c #67679D9D0000",
"2	c #ACACB1B10000",
"3	c #7E7EA4A40000",
"4	c #5A5A7D7DFFFF",
"5	c #B4B4ACAC0000",
"6	c #63639C9CFFFF",
"7	c #B7B798980000",
"8	c #B5B5A2A20000",
"9	c #6C6CBBBBFFFF",
"0	c #44444444D8D8",
"q	c #40404040C2C2",
"w	c #3C3C3C3CACAC",
"e	c #373737379696",
"r	c #52525F5FFFFF",
"t	c #1A1A1A1A7373",
"y	c #333333338181",
"u	c #000000006666",
"                                                                   .",
"                                                                  ..",
"  XoXoXoXOX+X@X@X#X$X%X&X*X&X&X*X$XoX%X*X&X&X&X=X-X+X%X;X:X?X?X>X:..",
"  oXoX*X*X*X*X%X%XoX*X$X%X*X&X*X*X$X&X$XoX*X,X,X*X-XOX*X<X:X?X>X?X..",
"  X*X,X1X<X2X3X;X*X&X&X&X&XoXoX&X*X*X&X*X;XoX*X;X&X4X%X*X5X:X?X:X*..",
"  oX*X&X,X1X&X;X1X&X&X&X&X;X;X&X;X*X&X;X&XoXoX*X&X;X6XoX,X:X:X7X$X..",
"  X*X*X&X;X&X<X2X8X8X,X&X&X;X;X;X&X*X&X*X&X%X*X&X*X%X9XoX8X?X$XOX-..",
"  oX*X*X,X5X<X5X<X2X8X1X;X&X&X;X;X&X*X$X$X$XoX%X&X%X+X@X&X:X*X@X0X..",
"  X*X*X&X<X3X<X8X2X5X2X;X&X&X;X;X;X*X$X$X$X$X,X%X%X9X0XqX*X7X-X0X@..",
"  oXoX&X;X$X4X-X3X2X5X3X,X1X&X;X;X&XoX$X$X$X*X&XoX&X@XqXwX@X-XqX@X..",
"  XoXoX*X*X6XeX-X&X5X8X1X;X,X,X,X;X&XoXoX$XoX&X&X&X$X0XwXwX0XqX0Xr..",
"  OXoX*X6XtXeXqX0X*X3X2X1X1X,X,X;X&X*X*X*XoX&X,X,X,X%X@XwXqXqX0X@X..",
"  X6XyXtXyXeXwXwX0X*X2X2X8X1X1X,X&X&X&X&X*XoX;X1X,X;X*X6XwXwXwX-Xq..",
"  wXuXtXyXeXeXeXwXrXoX5X7X5X1X,X,X&X;X;X&X*X&X1X1X,X;X%X0XeXeXwXqX..",
"  XuXtXtXtXtXeXeXqX-X;X5X8X<X3X1X,X&X;X;X&X&X;X,XoXoX&X%XrXeXyXeXq..",
"  uXtXtXtXtXyXeXeXqX@X&X5X8X<X3X1X;X;X;X;X&X;X;X*X$XoX*XOX@XyXyXeX..",
"  XuXuXuXuXuXtXyXeX@X0X3X1X7X8X3X,X;X;X;X;X;X;X;X*XoX$X$XoX6XyXyXw..",
"  uXuXuXuXtXtXyXeXwX0XoX:X:X:X7X3X;X;X;X&X&X*X,XoXoX$X-XoXwXtXeXwX..",
"  XuXuXuXuXuXyXeXeXqX0X8X5X7X?X8X1X;X;X&X&X*X&X$XXXOXwX+X+XtXtXwX0..",
"  uXuXuXuXtXtXyXeXwXqX%X:X7X:X:X5X,X;X&X&X;X;XoXo-eXtXtXwXyXtXyXwX..",
"  XuXuXuXuXuXuXuXtXyXyX*X7X7X7X:X3X;X&X&X&X1X$XqXyXtXuXuXuXtXtXeX+..",
"  uXuXuXuXuXuXuXuXtXtXwX7X7X7X?X5X,X&X*X&X,XoXwXyXtXuXuXuXuXtXwXrX..",
"  XuXuXuXuXuXuXuXuXtXtX@X<X7X7X7X3X&X*X&X1X*XqXtXtXtXuXtXtXyXwX@Xq..",
"  uXuXuXuXuXuXuXtXuXtXyX&X,X7X7X5X;X&X*X&X*X9XtXuXtXtXuXyXtXeX0XqX..",
"  XuXuXuXuXuXuXtXyXyXeXeX6X;X8X8X1X*X*X*X*X$XuXuXtXtXuXuXuXeX0XwXw..",
"  uXuXuXuXuXtXtXyXyXyXyXwX&X1X7X<X;X*XoXoX*XyXuXuXtXuXuXuXeX0XeXtX..",
"  XuXuXuXuXuXtXtXyXyXyXeXwXoX1X5X;X*XoX#XoX9XyXuXuXuXuXuXtXqXeXtXt..",
"  eXtXtXuXuXuXtXyXyXyXeXeXwX6X7X5X*XrX0XqX*XtXuXuXuXuXuXtXeXeXuXuX..",
"  XtXtXtXuXuXuXtXyXtXyXeXeX6X4X:X7X=XqXqX$XOXuXuXuXuXuXuXtXwXtXuXu..",
"  tXwXyXyXuXuXuXtXtXyXeXeXeX4X4X:X&XwX%X4XOXOXuXuXuXuXuXtXwXyXuXuX..",
"  XyXyX#XuXuXuXuXuXtXyXeXeXwX0X,X7X4XoX*XyXrXrXwXuXuXuXuXyXwXuXuXy..",
"  yXuXyXqXuXuXuXuXuXtXyXeXwXqXqX8X:X#X*XeX0X0XOXuXuXuXuXtXqXyXuXtX..",
"  XuXuXtXuXuXuXuXuXtXyXeXwXwXwX0X,X2X&XoXwX#XwXwXqX0XuXtXyXeXuXuXt..",
"  yXuXuXuXuXuXuXuXtXtXyXeXeXqXwXwXOX,X;X4X$X-XwXyXrXuXuXeXqXtXuXtX..",
" ...................................................................",
"...................................................................."};
