/* XPM */
static char * map_btn_sel_2_xpm[] = {
"48 24 17 1",
" 	c #36363B3B4A4A",
".	c gray97",
"X	c #000000006666",
"o	c #0A0A83830000",
"O	c #212189890000",
"+	c #4F4F96960000",
"@	c #B7B798980000",
"#	c #B9B98E8E0000",
"$	c #BABA84840000",
"%	c #BCBC7B7B0000",
"&	c #383890900000",
"*	c #67679D9D0000",
"=	c #ACACB1B10000",
"-	c #9595AAAA0000",
";	c #B4B4ACAC0000",
":	c #B5B5A2A20000",
"?	c #7E7EA4A40000",
"                                                ",
"                                               .",
"  XXoooooXXXXooXXXooOooXXOXXXoo++OoXXXoO@#$$%...",
"  XoO&+*OO&*OOOOOO&&OO&OoO&&OOXXoOO&XXX&=###@X..",
"  oo&O&O+--;::;+O&&&&&&OOoOOoOXoOO+XXXXX:#@XXX..",
"  ooOO-o--@==;;=&OoO&&&&OXXXXXXOoXXXXXXXo-XXXX..",
"  XXOoXXXXX?=;;;++*OO&&&OXXXXXXoOoXOXXXXXXXXXX..",
"  XXoXXXXXXXX??=-***++&&OooooXXO++++OXXXXXXXXX..",
"  XXXXXXXXXXXo&==@?***+OOOOOooXO+**+&oXXXXXXXX..",
"  XXXXXXXXXXXXX&;=@-??*+O&&&OOO&++&oXOXXXXXXXX..",
"  XXXXXXXXXXXXXX*;:;-??+&&&&&&&&&OoXXOoXXXXXXX..",
"  XXXXXXXXXXXXXX=;##$@;+&&O&OOOo+oXXXXXXXXXXXX..",
"  XXXXXXXXXXXXXX::@@$@:*+&&OOOoOOXXXXXXXXXXXXX..",
"  XXXXXXXXXXXXXXo@@@@$#?+OOOOO*oXXXXXXXXXXXXXX..",
"  XXXXXXXXXXXXXXO@@@@$#?+O&oO&&XXXXXXXXXXXXXXX..",
"  XXXXXXXXXXXXXXXO+=#@@*&OooO&oXXXXXXXXXXXXXXX..",
"  XXXXXXXXXXXXXXXXO&:;:*&oooooOXXXXXXXXXXXXXXX..",
"  XXXXXXXXXXXXXXXXOX*#;&oXXXXOOXXXXXXXXXXXXXXX..",
"  XXXXXXXXXXXXXXXXXoX@@?oXXXXXOXXXXXXXXXXXXXXX..",
"  XXXXXXXXXXXXXXXXXXXX:@OXXXXXOXXXXXXXXXXXXXXX..",
"  XXXXXXXXXXXXXXXXXXXX+@?XXoXXXXXXXXXXXXXXXXXX..",
"  XXXXXXXXXXXXXXXXXXXXX+@&OOXXXXXXXXXXXXXXXXXX..",
"  ..............................................",
" ..............................................."};
