/* XPM */
static char * map_btn_up_ins_2_xpm[] = {
"48 24 17 1",
" 	c gray97",
".	c #36363B3B4A4A",
"X	c #9A9A9A9A9A9A",
"o	c #000000006666",
"O	c #0A0A83830000",
"+	c #212189890000",
"@	c #4F4F96960000",
"#	c #B7B798980000",
"$	c #383890900000",
"%	c #ACACB1B10000",
"&	c #B9B98E8E0000",
"*	c #9595AAAA0000",
"=	c #B4B4ACAC0000",
"-	c #B5B5A2A20000",
";	c #7E7EA4A40000",
":	c #67679D9D0000",
"?	c #BABA84840000",
"                                                ",
"                                               .",
"  XoXOXOXoXoXOXoXoXOXOXoX+XoXOX@X+XoXoX+X#X#Xo..",
"  oX+X@X+X$X+X+X+X$X+X$XOX$X+XoXOX+XoXoX%X&X#X..",
"  XOX+X+X*X=X-X@X$X$X$X+XOX+X+XOX+XoXoXoX&XoXo..",
"  OX+X*X*X#X%X=X$XOX$X$X+XoXoXoXOXoXoXoXOXoXoX..",
"  XoXOXoXoX;X=X=X@X+X$X$XoXoXoXOXOX+XoXoXoXoXo..",
"  oXOXoXoXoXoX;X*X:X@X$X+XOXOXoX@X@X+XoXoXoXoX..",
"  XoXoXoXoXoXOX%X#X:X:X+X+X+XOX+X:X@XOXoXoXoXo..",
"  oXoXoXoXoXoXoX=X#X;X:X+X$X+X+X@X$XoXoXoXoXoX..",
"  XoXoXoXoXoXoXoX=X=X;X@X$X$X$X$X+XoX+XoXoXoXo..",
"  oXoXoXoXoXoXoX%X&X?X=X$X+X+X+X@XoXoXoXoXoXoX..",
"  XoXoXoXoXoXoXoX-X#X#X:X$X+X+X+XoXoXoXoXoXoXo..",
"  oXoXoXoXoXoXoXOX#X#X&X@X+X+X:XoXoXoXoXoXoXoX..",
"  XoXoXoXoXoXoXoX#X#X?X;X+XOX$XoXoXoXoXoXoXoXo..",
"  oXoXoXoXoXoXoXoX@X&X#X$XOX+XOXoXoXoXoXoXoXoX..",
"  XoXoXoXoXoXoXoXoX$X=X:XOXOXOXoXoXoXoXoXoXoXo..",
"  oXoXoXoXoXoXoXoX+X:X=XOXoXoX+XoXoXoXoXoXoXoX..",
"  XoXoXoXoXoXoXoXoXOX#X;XoXoXoXoXoXoXoXoXoXoXo..",
"  oXoXoXoXoXoXoXoXoXoX-X+XoXoX+XoXoXoXoXoXoXoX..",
"  XoXoXoXoXoXoXoXoXoXoX#XoXOXoXoXoXoXoXoXoXoXo..",
"  oXoXoXoXoXoXoXoXoXoXoX#X+XoXoXoXoXoXoXoXoXoX..",
"  ..............................................",
" ..............................................."};
