/* XPM */
static char * mm_run_in_xpm[] = {
"35 21 6 1",
" 	s None	c None",
".	c #434348485A5A",
"X	c gray49",
"o	c white",
"O	s gray	c black",
"+	c forestgreen",
/*#C3C3B4B4B0B0*/
"...................................",
".XXXXXXXXXXXXXXXXXXXXXXXXXXXXXXXXXo",
".XXXXXXXXXXXXXXXXXXXXXXXXXXXXXXXXXo",
".XXXXXXXXXXXXXXXXXXXXXXXXXXXXXXXXXo",
".XXXXXXXXXXXXXXXXXXXXXXXXXXXXXXXXXo",
".XXXXXXXXXXXXXXOOXXXXXXXXXXXXXXXXXo",
".XXXXXXXXXXXXXXO+OXXXXXXXXXXXXXXXXo",
".XXXXXXXXXXXXXXO++OXXXXXXXXXXXXXXXo",
".XXXXXXXXXXXXXXO+++OXXXXXXXXXXXXXXo",
".XXXXXXXXXXXXXXO++++OXXXXXXXXXXXXXo",
".XXXXXXXXXXXXXXO+++++ XXXXXXXXXXXXo",
".XXXXXXXXXXXXXXO++++ XXXXXXXXXXXXXo",
".XXXXXXXXXXXXXXO+++ XXXXXXXXXXXXXXo",
".XXXXXXXXXXXXXXO++ XXXXXXXXXXXXXXXo",
".XXXXXXXXXXXXXXO+ XXXXXXXXXXXXXXXXo",
".XXXXXXXXXXXXXX  XXXXXXXXXXXXXXXXXo",
".XXXXXXXXXXXXXXXXXXXXXXXXXXXXXXXXXo",
".XXXXXXXXXXXXXXXXXXXXXXXXXXXXXXXXXo",
".XXXXXXXXXXXXXXXXXXXXXXXXXXXXXXXXXo",
".XXXXXXXXXXXXXXXXXXXXXXXXXXXXXXXXXo",
".oooooooooooooooooooooooooooooooooo"};
