/* XPM */
static char * mm_rec_out_xpm[] = {
"35 21 4 1",
" 	c gainsboro",
".	c gray",
"X	c #434348485A5A",
"o	s gray	c black",
"                                   ",
" .................................X",
" .................................X",
" .................................X",
" .................................X",
" .................................X",
" ..............oooo...............X",
" .............ooXXXX..............X",
" ............ooXXXXXX.............X",
" ............oXXXXXXX ............X",
" ............oXXXXXXX ............X",
" ............oXXXXXXX ............X",
" .............XXXXXX  ............X",
" ..............XXXX  .............X",
" ...............    ..............X",
" .................................X",
" .................................X",
" .................................X",
" .................................X",
" .................................X",
" XXXXXXXXXXXXXXXXXXXXXXXXXXXXXXXXXX"};
