/* XPM */
static char * mm_run_out_xpm[] = {
"35 21 4 1",
" 	c gainsboro",
".	c gray",
"X	c #434348485A5A",
"o	s gray	c black",
/*#434348485A5A*/
"                                   ",
" .................................X",
" .................................X",
" .................................X",
" .................................X",
" .............oo..................X",
" .............oXo.................X",
" .............oXXo................X",
" .............oXXXo...............X",
" .............oXXXXo..............X",
" .............oXXXXX .............X",
" .............oXXXX ..............X",
" .............oXXX ...............X",
" .............oXX ................X",
" .............oX .................X",
" .............  ..................X",
" .................................X",
" .................................X",
" .................................X",
" .................................X",
" XXXXXXXXXXXXXXXXXXXXXXXXXXXXXXXXXX"};
