/* XPM */
static char * mm_rec_in_xpm[] = {
"35 21 6 1",
" 	c #434348485A5A",
".	c gray49",
"X	c white",
"o	s gray	c black",
"O	c red",
"+	c #C3C3B4B4B0B0",
"                                   ",
" .................................X",
" .................................X",
" .................................X",
" .................................X",
" .................................X",
" ..............oooo...............X",
" .............ooOOOO..............X",
" ............ooOOOOOO.............X",
" ............oOOOOOOO+............X",
" ............oOOOOOOO+............X",
" ............oOOOOOOO+............X",
" .............OOOOOO++............X",
" ..............OOOO++.............X",
" ...............++++..............X",
" .................................X",
" .................................X",
" .................................X",
" .................................X",
" .................................X",
" XXXXXXXXXXXXXXXXXXXXXXXXXXXXXXXXXX"};
