/* XPM */
static char * mm_run_out_ins_xpm[] = {
"35 21 3 1",
" 	c gainsboro",
".	c gray",
"X	c #434348485A5A",
/*#434348485A5A*/
"                                   ",
" .................................X",
" .................................X",
" .................................X",
" .................................X",
" ..............X..................X",
" ...............X.................X",
" ..............X.X................X",
" ...............X.X...............X",
" ..............X.X.X..............X",
" ...............X.X.X.............X",
" ..............X.X.X..............X",
" ...............X.X...............X",
" ..............X.X................X",
" ...............X.................X",
" ..............X..................X",
" .................................X",
" .................................X",
" .................................X",
" .................................X",
" XXXXXXXXXXXXXXXXXXXXXXXXXXXXXXXXXX"};
