/* XPM */
static char * mm_stop_in_xpm[] = {
"35 21 6 1",
" 	s None	c None",
".	c #434348485A5A",
"X	c gray49",
"o	c white",
"O	s gray	c black",
"+	c gray97",
/*#C8C8C8C8C8C8*/
"...................................",
".XXXXXXXXXXXXXXXXXXXXXXXXXXXXXXXXXo",
".XXXXXXXXXXXXXXXXXXXXXXXXXXXXXXXXXo",
".XXXXXXXXXXXXXXXXXXXXXXXXXXXXXXXXXo",
".XXXXXXXXXXXXXXXXXXXXXXXXXXXXXXXXXo",
".XXXXXXXXXXXXXXXXXXXXXXXXXXXXXXXXXo",
".XXXXXXXXXXXXOOOOOOOO XXXXXXXXXXXXo",
".XXXXXXXXXXXXO+++++++ XXXXXXXXXXXXo",
".XXXXXXXXXXXXO+++++++ XXXXXXXXXXXXo",
".XXXXXXXXXXXXO+++++++ XXXXXXXXXXXXo",
".XXXXXXXXXXXXO+++++++ XXXXXXXXXXXXo",
".XXXXXXXXXXXXO+++++++ XXXXXXXXXXXXo",
".XXXXXXXXXXXXO+++++++ XXXXXXXXXXXXo",
".XXXXXXXXXXXXO+++++++ XXXXXXXXXXXXo",
".XXXXXXXXXXXX         XXXXXXXXXXXXo",
".XXXXXXXXXXXXXXXXXXXXXXXXXXXXXXXXXo",
".XXXXXXXXXXXXXXXXXXXXXXXXXXXXXXXXXo",
".XXXXXXXXXXXXXXXXXXXXXXXXXXXXXXXXXo",
".XXXXXXXXXXXXXXXXXXXXXXXXXXXXXXXXXo",
".XXXXXXXXXXXXXXXXXXXXXXXXXXXXXXXXXo",
".oooooooooooooooooooooooooooooooooo"};
