/* XPM */
static char * mm_stop_out_xpm[] = {
"35 21 4 1",
" 	c gainsboro",
".	c gray",
"X	c #434348485A5A",
"o	s gray	c black",
/*gainsboro*/
"                                   ",
" .................................X",
" .................................X",
" .................................X",
" .................................X",
" .................................X",
" ............oooooooo ............X",
" ............oXXXXXXX ............X",
" ............oXXXXXXX ............X",
" ............oXXXXXXX ............X",
" ............oXXXXXXX ............X",
" ............oXXXXXXX ............X",
" ............oXXXXXXX ............X",
" ............oXXXXXXX ............X",
" ............         ............X",
" .................................X",
" .................................X",
" .................................X",
" .................................X",
" .................................X",
" XXXXXXXXXXXXXXXXXXXXXXXXXXXXXXXXXX"};
