/* XPM */
static char * mm_stop_out_ins_xpm[] = {
"35 21 3 1",
" 	c gainsboro",
".	c gray",
"X	c #434348485A5A",
/*gray*/
"                                   ",
" .................................X",
" .................................X",
" .................................X",
" .................................X",
" .................................X",
" ............X.X.X.X.X............X",
" .............X.X.X.X.............X",
" ............X.X.X.X.X............X",
" .............X.X.X.X.............X",
" ............X.X.X.X.X............X",
" .............X.X.X.X.............X",
" ............X.X.X.X.X............X",
" .............X.X.X.X.............X",
" ............X.X.X.X.X............X",
" .................................X",
" .................................X",
" .................................X",
" .................................X",
" .................................X",
" XXXXXXXXXXXXXXXXXXXXXXXXXXXXXXXXXX"};
