/* XPM */
static char * move_bott_sel_xpm[] = {
"20 20 5 1",
" 	c #36363B3B4A4A",
".	c gray49",
"X	c #C7C7CBCBDADA",
"o	s gray	c black",
"O	c red",
/*/home/rascal/oz/Ferret_gui/move_bott_sel.xpm*/
"                    ",
" ..................X",
" ...             ..X",
" ...             ..X",
" .........o........X",
" .O.......o......O.X",
" .........o........X",
" .........o........X",
" .........o........X",
" .O.......o......O.X",
" ....ooooooooooo...X",
" .....ooooooooo....X",
" .O....ooooooo...O.X",
" .......ooooo......X",
" .O......ooo.....O.X",
" .O.......o......O.X",
" .OOOOOOOOOOOOOOOO.X",
" ..................X",
" ..................X",
" XXXXXXXXXXXXXXXXXXX"};
