/* XPM */
static char * move_top_in_xpm[] = {
"20 20 3 1",
" 	s None	c None",
".	c gray49",
"X	s gray	c black",
/**/
"....................",
"....................",
"....................",
"..XXXXXXXXXXXXXXXX..",
"..       X        ..",
"........XXX.........",
".......XXXXX........",
"......XXXXXXX.......",
".....XXXXXXXXX......",
"....XXXXXXXXXXX.....",
".........X..........",
".........X..........",
".........X..........",
".........X..........",
".........X..........",
".........X..........",
".........X..........",
".........X..........",
"....................",
"...................."};
