/* XPM */
static char * move_top_xpm[] = {
"20 20 6 1",
" 	c white",
".	c gray80",
"X	c gray37",
"o	c red",
"O	s gray	c black",
"+	c #36363B3B4A4A",
/*/home/rascal/oz/Ferret_gui/move_top.xpm*/
"                    ",
" ..................X",
" ..................X",
" .oooooooooooooooo.X",
" .o......O.......o.X",
" .o.....OOO......o.X",
" .o....OOOOO.....o.X",
" .....OOOOOOO......X",
" .o..OOOOOOOOO...o.X",
" ...OOOOOOOOOOO....X",
" ........O.........X",
" .o......O.......o.X",
" ........O.........X",
" ........O.........X",
" ........O.........X",
" .o......O.......o.X",
" ..+++++++++++++...X",
" ..+++++++++++++...X",
" ..................X",
" XXXXXXXXXXXXXXXXXXX"};
