/* XPM */
static char * move_bott_xpm[] = {
"20 20 6 1",
" 	c white",
".	c gray80",
"X	c gray37",
"o	c #36363B3B4A4A",
"O	c red",
"+	s gray	c black",
/*/home/rascal/oz/Ferret_gui/move_bott.xpm*/
"                    ",
" ..................X",
" ...ooooooooooooo..X",
" ...ooooooooooooo..X",
" .O.......+......O.X",
" .........+........X",
" .........+........X",
" .........+........X",
" .O.......+......O.X",
" .........+........X",
" ....+++++++++++...X",
" .O...+++++++++..O.X",
" ......+++++++.....X",
" .O.....+++++....O.X",
" .O......+++.....O.X",
" .O.......+......O.X",
" .OOOOOOOOOOOOOOOO.X",
" ..................X",
" ..................X",
" XXXXXXXXXXXXXXXXXXX"};
