/* XPM */
static char * move_top_sel_xpm[] = {
"20 20 5 1",
" 	c #36363B3B4A4A",
".	c gray49",
"X	c #BABABEBECCCC",
"o	c red",
"O	s gray	c black",
/*Ferret_gui/move_top_ins.xpm*/
"                    ",
" ..................X",
" ..................X",
" .oooooooooooooooo.X",
" .o......O.......o.X",
" .o.....OOO......o.X",
" ......OOOOO.......X",
" .o...OOOOOOO....o.X",
" ....OOOOOOOOO.....X",
" ...OOOOOOOOOOO....X",
" .o......O.......o.X",
" ........O.........X",
" ........O.........X",
" ........O.........X",
" .o......O.......o.X",
" ........O.........X",
" ..             ...X",
" ..             ...X",
" ..................X",
" XXXXXXXXXXXXXXXXXXX"};
