/* XPM */
static char * move_top_ins_xpm[] = {
"20 20 6 1",
" 	c white",
".	c gray80",
"X	c gray37",
"o	c red",
"O	s gray	c black",
"+	c #36363B3B4A4A",
/*Ferret_gui/move_top_ins.xpm*/
"                    ",
" ..................X",
" ..................X",
" ..o.o.o.o.o.o.o.o.X",
" .o......O.........X",
" .......O.O......o.X",
" .o....O.O.O.......X",
" .....O.O.O.O......X",
" .o..O.O.O.O.O...o.X",
" ...O.O.O.O.O.O....X",
" ........O.........X",
" .o..............o.X",
" ........O.........X",
" ..................X",
" ........O.........X",
" .o..............o.X",
" ...+.+.+.+.+.+....X",
" ..+.+.+.+.+.+.+...X",
" ..................X",
" XXXXXXXXXXXXXXXXXXX"};
