/* XPM */
static char * move_bott_ins_xpm[] = {
"20 20 6 1",
" 	c white",
".	c gray80",
"X	c gray37",
"o	c #36363B3B4A4A",
"O	c red",
"+	s gray	c black",
/*/home/rascal/oz/Ferret_gui/move_bott_ins.xpm*/
"                    ",
" ..................X",
" ....o.o.o.o.o.o...X",
" ...o.o.o.o.o.o.o..X",
" .O..............O.X",
" .........+........X",
" ..................X",
" .........+........X",
" .O..............O.X",
" .........+........X",
" ....+.+.+.+.+.+...X",
" .O...+.+.+.+.+..O.X",
" ......+.+.+.+.....X",
" .......+.+.+....O.X",
" .O......+.+.......X",
" .........+......O.X",
" .O.O.O.O.O.O.O.O..X",
" ..................X",
" ..................X",
" XXXXXXXXXXXXXXXXXXX"};
