/* XPM */
static char * nearest_ins_xpm[] = {
"40 20 2 1",
" 	c gray",
".	s gray	c black",
/*gray*/
"                                        ",
"                                        ",
"                                        ",
"        . . . .                         ",
"                .                       ",
"       .                                ",
"              . . .                     ",
"       .       . .                      ",
"                .                       ",
"     . . .   . . . .           . . .    ",
"    . . . .                   . . . .   ",
"     . . .   . . . .           . . .    ",
"    . . . .                   . . . .   ",
"     . . .   . . . .           . . .    ",
"    . . . .                   . . . .   ",
"     . . .   . . . .           . . .    ",
"                                        ",
"                                        ",
"                                        ",
"                                        "};
