/* XPM */
static char * noaa_logo_xpm[] = {
"51 51 4 1",
" 	c gray80",
".	c #3e3efe",
"X	c #fefefe",
"o	c #5381fe",
/*#3e3efe*/
"                    ...........                    ",
"                ...................                ",
"             .........................             ",
"            ...........................            ",
"          ...............................          ",
"         .................................         ",
"        ...................................        ",
"       .....................................       ",
"      ......................................       ",
"     ..........XXX..XXXX..XXX..XXX..........XX     ",
"    XX.........X..X.X..X.X..X.X..X........XXXXX    ",
"   XXXX........X..X.X..X.X..X.X..X.......XXXXXXX   ",
"  XXXXXXX......X..X.X..X.XXXX.XXXX.......XXXXXXX   ",
"  XXXXXXXX.....X..X.X..X.X..X.X..X......XXXXXXXX   ",
" XXXXXXXXX.....X..X.XXXX.X..X.X..X.....XXXXXXXXo   ",
" XXXXXXXXXX............................XXXXXXXXoo  ",
" XXXXXXXXXXX..........................XXXXXXXXoooo ",
" XXXXXXXXXXXX.........................XXXXXXXooooo ",
" ooXXXXXXXXXX........................XXXXXXXoooooo ",
" oooXXXXXXXXXX.......................XXXXXXooooooo ",
"oooooXXXXXXXXXX.....................XXXXXXXoooooooo",
"ooooooXXXXXXXXXX....................XXXXXXooooooooo",
"oooooooXXXXXXXXX...................XXXXXXoooooooooo",
"ooooooooXXXXXXXXX..................XXXXXooooooooooo",
"oooooooooXXXXXXXXX................XXXXXoooooooooooo",
"ooooooooooXXXXXXXXX..............XXXXXooooooooooooo",
"oooooooooooXXXXXXXXX............XXXXooooooooooooooo",
"ooooooooooooXXXXXXXXX..........XXXXoooooooooooooooo",
"ooooooooooooooXXXXXXXXX.......XXXoooooooooooooooooo",
"ooooooooooooooooXXXXXXXXXXXXXXXoooooooooooooooooooo",
"oooooooooooooooooooXXXXXXXXXXXXXXXXXXoooooooooooooo",
" ooooooooooooooooooooooooXXXXXXXoooooooooooooooooo ",
" oooooooooooooooooooooooXXXXXooooooooooooooooooooo ",
" oooooooooooooooooooooXXXXXooooooooooooooooooooooo ",
" ooooooooooooooooooXXXXXXooooooooooooooooooooooooo ",
"  oooooooooooooooooXXXXoooooooooooooooooooooooooo  ",
"  ooooooooooooooooooooooooooooooooooooooooooooooo  ",
"  ooooooooooooooooooooooooooooooooooooooooooooooo  ",
"   ooooooooooooooooooooooooooooooooooooooooooooo   ",
"    ooooooooooooooooooooooooooooooooooooooooooo    ",
"    ooooooooooooooooooooooooooooooooooooooooooo    ",
"     ooooooooooooooooooooooooooooooooooooooooo     ",
"      ooooooooooooooooooooooooooooooooooooooo      ",
"       ooooooooooooooooooooooooooooooooooooo       ",
"        ooooooooooooooooooooooooooooooooooo        ",
"         ooooooooooooooooooooooooooooooooo         ",
"          ooooooooooooooooooooooooooooooo          ",
"            ooooooooooooooooooooooooooo            ",
"             ooooooooooooooooooooooooo             ",
"                ooooooooooooooooooo                ",
"                    ooooooooooo                    "};
