/* XPM */ 
static char *noaatiny_colors[] = {
"88 65 3 1",
"`      c #fefefe",
"a      c #3e3efe",
"b      c #5381fe",
"````````````````````````````````````````````````````````````````````````````````````````",
"````````````````````````````````````````````````````````````````````````````````````````",
"````````````````````````````````````````````````````````````````````````````````````````",
"````````````````````````````````````````````````````````````````````````````````````````",
"````````````````````````````````````````````````````````````````````````````````````````",
"````````````````````````````````````````````````````````````````````````````````````````",
"``````````````````````````aaaaaaaaaaaa``````````````````````````````````````````````````",
"``````````````````````aaaaaaaaaaaaaaaaaaa```````````````````````````````````````````````",
"````````````````````aaaaaaaaaaaaaaaaaaaaaaa`````````````````````````````````````````````",
"```````````````````aaaaaaaaaaaaaaaaaaaaaaaaaa```````````````````````````````````````````",
"`````````````````aaaaaaaaaaaaaaaaaaaaaaaaaaaaaa`````````````````````````````````````````",
"````````````````aaaaaaaaaaaaaaaaaaaaaaaaaaaaaaaa````````````````````````````````````````",
"```````````````aaaaaaaaaaaaaaaaaaaaaaaaaaaaaaaaaa```````````````````````````````````````",
"``````````````aaaaaaaaaaaaaaaaaaaaaaaaaaaaaaaaaaaa``````````````````````````````````````",
"`````````````aaaaaaaaaaaaaaaaaaaaaaaaaaaaaaaaaaaaaa`````````````````````````````````````",
"````````````aaaaaaaaaaaaaaaaaaaaaaaaaaaaaaaaaaaaaaaa````````````````````````````````````",
"```````````aaaaaaaaaaa```aa````aa```aa```aaaaaaaaa``````````````````````````````````````",
"````````````aaaaaaaaaa`aa`a`aa`a`aa`a`aa`aaaaaaa````````````````````````````````````````",
"`````````````aaaaaaaaa`aa`a`aa`a`aa`a`aa`aaaaaa`````````````````````````````````````````",
"```````````````aaaaaaa`aa`a`aa`a````a````aaaaaa`````````````````````````````````````````",
"````````````````aaaaaa`aa`a`aa`a`aa`a`aa`aaaaa````````b`````````````````````````````````",
"````````````````aaaaaa`aa`a````a`aa`a`aa`aaaa````````bb`````````````````````````````````",
"`````````````````aaaaaaaaaaaaaaaaaaaaaaaaaaaa````````bbb````````````````````````````````",
"``````````````````aaaaaaaaaaaaaaaaaaaaaaaaaa````````bbbb````````````````````````````````",
"```````````````````aaaaaaaaaaaaaaaaaaaaaaaaa```````bbbbb````````````````````````````````",
"```````bb``````````aaaaaaaaaaaaaaaaaaaaaaaa```````bbbbbb````````````````````````````````",
"```````bbbb`````````aaaaaaaaaaaaaaaaaaaaaaa``````bbbbbbbb```````````````````````````````",
"```````bbbbb`````````aaaaaaaaaaaaaaaaaaaaa```````bbbbbbbb```````````````````````````````",
"``````bbbbbb``````````aaaaaaaaaaaaaaaaaaaa``````bbbbbbbbb```````````````````````````````",
"``````bbbbbbb`````````aaaaaaaaaaaaaaaaaaa``````bbbbbbbbbb```````````````````````````````",
"``````bbbbbbbb`````````aaaaaaaaaaaaaaaaaa`````bbbbbbbbbbb```````````````````````````````",
"``````bbbbbbbbb`````````aaaaaaaaaaaaaaaa`````bbbbbbbbbbbb```````````````````````````````",
"``````bbbbbbbbbb`````````aaaaaaaaaaaaaa`````bbbbbbbbbbbbb```````````````````````````````",
"``````bbbbbbbbbbb`````````aaaaaaaaaaaa````bbbbbbbbbbbbbbb```````````````````````````````",
"``````bbbbbbbbbbbb`````````aaaaaaaaaa````bbbbbbbbbbbbbbbb```````````````````````````````",
"``````bbbbbbbbbbbbbb`````````aaaaaaa```bbbbbbbbbbbbbbbbbb```````````````````````````````",
"```````bbbbbbbbbbbbbbb```````````````bbbbbbbbbbbbbbbbbbbb```````````````````````````````",
"```````bbbbbbbbbbbbbbbbbb``````````````````bbbbbbbbbbbbbb```````````````````````````````",
"```````bbbbbbbbbbbbbbbbbbbbbbbb```````bbbbbbbbbbbbbbbbbb````````````````````````````````",
"````````bbbbbbbbbbbbbbbbbbbbbb`````bbbbbbbbbbbbbbbbbbbbb````````````````````````````````",
"````````bbbbbbbbbbbbbbbbbbbb`````bbbbbbbbbbbbbbbbbbbbbbb````````````````````````````````",
"`````````bbbbbbbbbbbbbbbb``````bbbbbbbbbbbbbbbbbbbbbbbb`````````````````````````````````",
"`````````bbbbbbbbbbbbbbbb````bbbbbbbbbbbbbbbbbbbbbbbbbb`````````````````````````````````",
"``````````bbbbbbbbbbbbbbbbbbbbbbbbbbbbbbbbbbbbbbbbbbbb``````````````````````````````````",
"``````````bbbbbbbbbbbbbbbbbbbbbbbbbbbbbbbbbbbbbbbbbbbb``````````````````````````````````",
"```````````bbbbbbbbbbbbbbbbbbbbbbbbbbbbbbbbbbbbbbbbbb```````````````````````````````````",
"```````````bbbbbbbbbbbbbbbbbbbbbbbbbbbbbbbbbbbbbbbbbb```````````````````````````````````",
"````````````bbbbbbbbbbbbbbbbbbbbbbbbbbbbbbbbbbbbbbbb````````````````````````````````````",
"`````````````bbbbbbbbbbbbbbbbbbbbbbbbbbbbbbbbbbbbbb`````````````````````````````````````",
"``````````````bbbbbbbbbbbbbbbbbbbbbbbbbbbbbbbbbbbb``````````````````````````````````````",
"```````````````bbbbbbbbbbbbbbbbbbbbbbbbbbbbbbbbbb```````````````````````````````````````",
"````````````````bbbbbbbbbbbbbbbbbbbbbbbbbbbbbbbb````````````````````````````````````````",
"`````````````````bbbbbbbbbbbbbbbbbbbbbbbbbbbbbb`````````````````````````````````````````",
"``````````````````bbbbbbbbbbbbbbbbbbbbbbbbbbbb``````````````````````````````````````````",
"````````````````````bbbbbbbbbbbbbbbbbbbbbbbb````````````````````````````````````````````",
"``````````````````````bbbbbbbbbbbbbbbbbbbb``````````````````````````````````````````````",
"````````````````````````bbbbbbbbbbbbbbb`````````````````````````````````````````````````",
"```````````````````````````bbbbbbbb`````````````````````````````````````````````````````",
"````````````````````````````````````````````````````````````````````````````````````````",
"````````````````````````````````````````````````````````````````````````````````````````",
"````````````````````````````````````````````````````````````````````````````````````````",
"````````````````````````````````````````````````````````````````````````````````````````",
"````````````````````````````````````````````````````````````````````````````````````````",
"````````````````````````````````````````````````````````````````````````````````````````",
"````````````````````````````````````````````````````````````````````````````````````````"
};








