/* XPM */
static char * parzen_xpm[] = {
"40 20 3 1",
" 	c gray80",
".	s gray	c black",
"X	c red",
/*lightgrey*/
"                                        ",
"                                        ",
" ..                                     ",
"  .                .                    ",
"  .               . .                   ",
"  .              .   .                  ",
"  .             .     .                 ",
"  .    XXX     .       .                ",
"  .     X X   .         .               ",
" ..     X X X.  X X XXX  .X XXX         ",
"  .     XX  .XX XX   X  X .  X X        ",
"  .     X  .X X X   X   XX . X X        ",
"  .    XXX. XXX X   XXX  XX .XXXX       ",
"  .      .                   .          ",
"  .     .                     .         ",
"  .    .                       .        ",
"  .   .                         .       ",
" ..................................     ",
"  .                .              .     ",
"                                        "};
