/* XPM */
static char * parzen_ins_xpm[] = {
"40 20 3 1",
" 	c gray",
".	s gray	c black",
"X	c red",
/*lemonchiffon*/
"                                        ",
"                                        ",
" .                                      ",
"  .                .                    ",
"                  . .                   ",
"  .                                     ",
"                .     .                 ",
"  .    XXX                              ",
"        X X   .         .               ",
"  .     X X X   X X XXX  XX XXX         ",
" .      XX  .XX XX   X  X .  X X        ",
"  .     X   X X X   X   XX   X X        ",
"       XXX. XXX X   XXX  XX .XXXX       ",
"  .                                     ",
"        .                     .         ",
"  .                                     ",
"      .                         .       ",
" .. . . . . . . . . . . . . . . . .     ",
"  .                .              .     ",
"                                        "};
