/* XPM */
static char * portrait_xpm[] = {
"26 19 3 1",
" 	c gray80",
".	s gray	c black",
"X	c gray59",
/**/
"                          ",
"  .........               ",
"  .XXXXXX.X.              ",
"  .XXXXXX.XX.             ",
"  .XXXXXX.XXX.            ",
"  .XXXXXX.....            ",
"  .XXXXXXXXXXX.           ",
"  .XXXXXXXXXXX.           ",
"  .XXXXXXXXXXX.           ",
"  .XXXXXXXXXXX.           ",
"  .XXXXXXXXXXX.           ",
"  .XXXXXXXXXXX.           ",
"  .XXXXXXXXXXX.           ",
"  .XXXXXXXXXXX.           ",
"  .XXXXXXXXXXX.           ",
"  .XXXXXXXXXXX.           ",
"  .XXXXXXXXXXX.           ",
"  .............           ",
"                          "};
