/* XPM */
static char * range_xpm[] = {
"20 10 3 1",
" 	c white",
".	c black",
"X	c red",
"                    ",
"              .   X ",
" X            ..  X ",
" X            ... X ",
" X................X ",
" X            ... X ",
" X            ..  X ",
"              .   X ",
"                    ",
"                    "};
