/* XPM */
static char * rsum_x_ins_xpm[] = {
"40 20 2 1",
" 	c gray",
".	s gray	c black",
/*/home/atoll2/oz/Ferret_gui/rsum_x_ins.xpm*/
"                    .                   ",
"                     .                  ",
"                    . . .               ",
"        . . . . .    .                  ",
"         .          .   .               ",
"          .                             ",
"           .       .   .  . .  .        ",
"            .        .       .          ",
"             .              .           ",
"             .               .          ",
"            .               .           ",
"           .               . . .        ",
"          .               .   .         ",
"         .               .   .          ",
"         . . . .    .                   ",
"        . . . .   .  .                  ",
"                                        ",
"                 .   .                  ",
"                    . .                 ",
"                  .  .                  "};
