/* XPM */
static char * rsum_y_xpm[] = {
"40 20 2 1",
" 	c gray80",
".	s gray	c black",
/*߀%*/
"                    ..                  ",
"                     .                  ",
"                    . ...               ",
"        .........   ..  .               ",
"         ..      .  .   .               ",
"          ..        .  .                ",
"           ..      .   .  ....  ..      ",
"            ..      ...     ..   .      ",
"             ..             ..   .      ",
"             .               .. .       ",
"            .                .. .       ",
"           .                 ...        ",
"          .                  ..         ",
"         .       .            .         ",
"        .........  ...       .          ",
"        ........  .  .       .          ",
"                  .  .    . .           ",
"                 .  ..    ..            ",
"                 . .. .                 ",
"                 .. ..                  "};
