/* XPM */
static char * rsum_x_xpm[] = {
"40 20 2 1",
" 	c gray80",
".	s gray	c black",
/*/home/atoll2/oz/Ferret_gui/rsum_x.xpm*/
"                    ..                  ",
"                     .                  ",
"                    . ...               ",
"        .........   ..  .               ",
"         ..      .  .   .               ",
"          ..        .  .                ",
"           ..      .   .  ...  ..       ",
"            ..      ...     ...         ",
"             ..             ..          ",
"             .              ..          ",
"            .               ..          ",
"           .               . . .        ",
"          .               .  ..         ",
"         .       .      ..   ..         ",
"        .........  ...                  ",
"        ........  .  .                  ",
"                  .  .                  ",
"                 .  ..                  ",
"                 . .. .                 ",
"                 .. ..                  "};
