/* XPM */
static char * running_sum_ins_xpm[] = {
"40 20 3 1",
" 	c #7E7E8888ABAB",
".	c black",
"X	c #FEFEFEFE6464",
"                                        ",
"                                        ",
"                                        ",
"                                        ",
"  . .. . .                              ",
"   .                      X             ",
"    .                       X           ",
"     .             X X X X X XX         ",
"      .                     X           ",
"       .                  X             ",
"       .                                ",
"      .      .   X   .   .   .   X   .  ",
"     .                                  ",
"    .        . . X X X X X X X X X . .  ",
"   .                                    ",
"   . . . .   .   X   .   .   .   X   .  ",
"  . . . .                               ",
"                                        ",
"                                        ",
"                                        "};
