/* XPM */
static char * running_sum_xpm[] = {
"40 20 3 1",
" 	c #7E7E8888ABAB",
".	c black",
"X	c #FEFEFEFE6464",
"                                        ",
"                                        ",
"                                        ",
"                                        ",
"  ........                              ",
"   ..     .               XX            ",
"    ..                      XX          ",
"     ..            XXXXXXXXXXXX         ",
"      ..                    XX          ",
"       ..                 XX            ",
"       .                                ",
"      .      .   X   .   .   .   X   .  ",
"     .       .   X   .   .   .   X   .  ",
"    .        ....XXXXXXXXXXXXXXXXX....  ",
"   .      .  .   X   .   .   .   X   .  ",
"  ........   .   X   .   .   .   X   .  ",
"  .......                               ",
"                                        ",
"                                        ",
"                                        "};
