/* XPM */
static char * screen_doc_xpm[] = {
"35 40 9 1",
" 	s None	c None",
".	c gray",
"X	c #434348485A5A",
"o	s gray	c black",
"O	c #A2A2A2A2A2A2",
"+	c #72729F9FFFFF",
"@	c #A9A9A9A9A9A9",
"#	c gray80",
"$	c gray85",
/*@*/
"...................................",
".......XXXXXXXXXXXXXXXXXXXX....oo..",
".......XOOOOOOOOOOOOOOOOOOX..oooo..",
".......XOOXXXXXXXXXXXXXXOOXoooo....",
".......XOX++++++++++++++Xoooo......",
".......XOX+++++++++++++oooo........",
".......XOX+++++++++++oooo@X........",
".......XOX+++++++++oooo+XOX........",
".......XOX+++++++oooo+++XOX........",
".......XOX+++++oooo+++++XOX........",
".......XOX+++oooo+++++++XOX........",
".......XOX+oooo+++++++++XOX........",
".......XOooooXXXXXXXXXXXOOX........",
".......ooooOOOOOOOOOOOOOOOX........",
".....ooooXXXXXXXXXXXXXXXXXX........",
"...oooo..XXXXXXXXXXXXXXXX..........",
".oooo..............................",
".oo................................",
"...................................",
"...................................",
"...................................",
"...........XXXXXXXXX...........oo..",
"...........X######X$X........oooo..",
"...........X######X  X.....oooo....",
"...........X######X   X..oooo......",
"...........X######XXXXXoooo........",
"...........X#########oooo..........",
"...........X#######ooooX...........",
"...........X#####oooo##X...........",
"...........X###oooo####X...........",
"...........X#oooo######X...........",
"...........oooo########X...........",
".........oooo##########X...........",
".......ooooX###########X...........",
".....oooo..X###########X...........",
"...oooo....X###########X...........",
".oooo......X###########X...........",
".oo........XXXXXXXXXXXXX...........",
"...................................",
"..................................."};
