/* XPM */
static char * shift_y_xpm[] = {
"40 20 2 1",
" 	c gray80",
".	s gray	c black",
/*whitesmoke*/
"                                        ",
"                                        ",
" ....  ..             ....  ..          ",
"   ..   .       ..      ..   .          ",
"   ..   .         ...   ..   .          ",
"    .. .  ............   .. .           ",
"    .. .          ...    .. .           ",
"    ...         ..       ...            ",
"    ..                   ..             ",
"     .                    .             ",
"    .    .               .  .       ..  ",
"    .                    .            . ",
" . .   ..             . . ..   .      . ",
" ..     .             ..   .   .    ... ",
"        .                  . ..... .  . ",
"        .                  .   .   .  . ",
"       .                  .    .   .  . ",
"       .                  .         ..  ",
"     . .                . .             ",
"     ..                 ..              "};
