/* XPM */
static char * sum_bad_xpm[] = {
"40 20 2 1",
" 	c gray80",
".	s gray	c black",
/*߀/home/atoll2/oz/Ferret_gui/su*xpmmpmll2/oz*/
"                                        ",
"                                        ",
"                                        ",
"                                        ",
"                                    ..  ",
"              ..                   ...  ",
"      .  .   ...                    ..  ",
"      .  .    ..                    ..  ",
"      .  .    ..                 .. ..  ",
"    .......   .. ..    ....     .  ...  ",
"     .  .     ......  ..  ..   ..   ..  ",
"     .  .     ..  ... .   ..   ..   ..  ",
"     .  .     ..   ..    ...   ..   ..  ",
"   .......    ..   ..  .. ..   ..   ..  ",
"    .  .      ..   .. ..  ..   ...  ..  ",
"    .  .      ..   .  .. ... .  ......  ",
"    .  .        ...    ..  ..    ..  .  ",
"                                        ",
"                                        ",
"                                        "};
