/* XPM */
static char * sum_t_xpm[] = {
"40 20 2 1",
" 	c gray80",
".	s gray	c black",
/*߀/home/rascal/oz/Ferret_gui/xpm*/
"                                        ",
"                                        ",
"                                        ",
"          .........                     ",
"           ..      .     .              ",
"            ..          ..              ",
"             ..       .....             ",
"              ..        ..              ",
"               ..      ..               ",
"               .       ..               ",
"              .        ..               ",
"             .         ..               ",
"            .         .. .              ",
"           .       .  ...               ",
"          .........                     ",
"          ........                      ",
"                                        ",
"                                        ",
"                                        ",
"                                        "};
