/* XPM */
static char * sym_30_xpm[] = {
"11 11 2 1",
" 	c gray80",
".	s gray	c black",
/* zure4*/
"     .     ",
"    . .    ",
"   .   .   ",
"  .     .  ",
" .       . ",
".         .",
" .       . ",
"  .     .  ",
"   .   .   ",
"    . .    ",
"     .     "};
