/* XPM */
static char * sym_50_xpm[] = {
"11 11 2 1",
" 	s gray	c black",
".	c gray80",
/*ghostwhite*/
" ......... ",
" ......... ",
". ....... .",
". ....... .",
".. ..... ..",
".. ..... ..",
"... ... ...",
"... ... ...",
".... . ....",
".... . ....",
"..... ....."};
