/* XPM */
static char * sym_69_xpm[] = {
"11 11 2 1",
" 	c gray80",
".	s gray	c black",
/*߀/home/rascal/oz/Ferret_gui/sym**/
"           ",
"           ",
"    ....   ",
"    .  .   ",
"    .  .   ",
"    ....   ",
"    .  .   ",
"    .  .   ",
"    ....   ",
"           ",
"           "};
