/* XPM */
static char * sym_8_xpm[] = {
"7 7 2 1",
" 	c gray",
".	s gray	c black",
"       ",
"   .   ",
"   .   ",
"   .   ",
"   .   ",
"   .   ",
"       "};
