/* XPM */
static char * sym_82_xpm[] = {
"11 11 2 1",
" 	s gray	c black",
".	c gray80",
/*whitesmoke*/
"    ...... ",
" .. ..... .",
" .. .... ..",
"    ... ...",
"...... ....",
"..... .....",
".... ......",
"... ...    ",
".. .... .. ",
". ..... .. ",
" ......    "};
