/* XPM */
static char * sym_63_xpm[] = {
"11 11 2 1",
" 	c gray80",
".	s gray	c black",
/*ghostwhite*/
"           ",
"           ",
"    ....   ",
"    .      ",
"    .      ",
"    ....   ",
"       .   ",
"       .   ",
"    ....   ",
"           ",
"           "};
