/* XPM */
static char * sym_88_xpm[] = {
"15 15 2 1",
" 	c gray80",
".	s gray	c black",
/**/
"       .       ",
"       .       ",
"      . .      ",
"      . .      ",
"     .   .     ",
"...............",
" .   .   .   . ",
"  . .     . .  ",
"   ..     ..   ",
"   . .   . .   ",
"  .   ...   .  ",
"  . ..   .. .  ",
" . .       . . ",
" ..         .. ",
".             ."};
