/* XPM */
static char * sym_67_xpm[] = {
"11 11 2 1",
" 	c gray80",
".	s gray	c black",
/*ÿÿÿÿÿÿÿÿÿÿÿÿÿÿÿÿÿÿÿÿÿÿ_gui/sym_66.xpm*/
"           ",
"           ",
"   ....    ",
"      .    ",
"      .    ",
"     .     ",
"     .     ",
"    .      ",
"    .      ",
"           ",
"           "};
