/* XPM */
static char * sym_56_xpm[] = {
"11 11 2 1",
" 	c gray80",
".	s gray	c black",
/*/home/rascal/oz/Ferret_gui/sym_56.xpm*/
"           ",
"     .     ",
"    ..     ",
"   . .     ",
"     .     ",
"     .     ",
"     .     ",
"     .     ",
"     .     ",
"   .....   ",
"           "};
