/* XPM */
static char * sym_27_xpm[] = {
"9 9 2 1",
" 	c gray80",
".	s gray	c black",
/*a green*/
"   ...   ",
"  .   .  ",
" .     . ",
".       .",
".       .",
".       .",
" .     . ",
"  .   .  ",
"   ...   "};
