/* XPM */
static char * sym_33_xpm[] = {
"7 7 2 1",
" 	c gray80",
".	s gray	c black",
/**/
"       ",
" ..... ",
"  . .  ",
"   .   ",
"  . .  ",
" .   . ",
"       "};
