/* XPM */
static char * sym_34_xpm[] = {
"7 7 2 1",
" 	s gray	c black",
".	c gray80",
/*/home/rascal/oz/Ferret_gui/sym_34.xpm*/
"       ",
". ... .",
".. . ..",
"... ...",
".. . ..",
". ... .",
" ..... "};
