/* XPM */
static char * sym_6_xpm[] = {
"7 7 2 1",
" 	c gray80",
".	s gray	c black",
/*/home/rascal/oz/Ferret_gui/sym_6.xpm*/
"       ",
"       ",
"       ",
" ..... ",
"       ",
"       ",
"       "};
