/* XPM */
static char * sym_20_xpm[] = {
"7 7 2 1",
" 	c gray80",
".	s gray	c black",
/*azure4*/
"   .   ",
"  . .  ",
"  . .  ",
" .   . ",
" .   . ",
".     .",
"......."};
