/* XPM */
static char * sym_49_xpm[] = {
"11 11 2 1",
" 	c gray80",
".	s gray	c black",
/*/home/rascal/oz/Ferret_gui/sym_49.xpm*/
"           ",
"           ",
"  .     .  ",
"  .     .  ",
"   .   .   ",
"   .   .   ",
"    . .    ",
"    . .    ",
"     .     ",
"           ",
"           "};
