/* XPM */
static char * sym_76_xpm[] = {
"11 11 2 1",
" 	c gray80",
".	s gray	c black",
/*gray*/
"          .",
"         . ",
"...........",
"       .   ",
"      .    ",
"     .     ",
"    .      ",
"   .       ",
"...........",
" .         ",
".          "};
