/* XPM */
static char * sym_36_xpm[] = {
"11 11 2 1",
" 	c gray80",
".	s gray	c black",
/*ÿÿÿÿÿÿÿÿÿÿÿÿÿÿÿÿÿÿÿÿÿÿ_gui/sym_35.xpm*/
" ......... ",
"         . ",
"        .  ",
"       .   ",
"      .    ",
"     .     ",
"    .      ",
"   .       ",
"  .        ",
" .         ",
" ......... "};
