/* XPM */
static char * sym_2_xpm[] = {
"8 8 2 1",
" 	c gray80",
".	s gray	c black",
/**/
"        ",
" .    . ",
"  .  .  ",
"   ..   ",
"   ..   ",
"  .  .  ",
" .    . ",
"        "};
