/* XPM */
static char * sym_65_xpm[] = {
"11 11 3 1",
" 	c gray80",
".	s gray	c black",
"X	c gray",
/*ÿÿÿÿÿÿÿÿÿÿÿÿÿÿÿÿÿÿÿÿÿÿ_gui/sym_64.xpm*/
"           ",
"           ",
"    ....   ",
"    .      ",
"    .      ",
"    ....   ",
"    .XX.   ",
"    .XX.   ",
"    ....   ",
"           ",
"           "};
