/* XPM */
static char * sym_38_xpm[] = {
"9 9 2 1",
" 	c gray80",
".	s gray	c black",
/*ÿÿÿÿÿÿÿÿÿÿÿÿÿÿÿÿÿÿrret_gui/sym_37.xpm*/
"    .    ",
"    .    ",
"    .    ",
".   .   .",
" .  .  . ",
"  . . .  ",
"   ...   ",
"    .    ",
"         "};
