/* XPM */
static char * sym_24_xpm[] = {
"7 7 2 1",
" 	s gray	c black",
".	c gray80",
/*khaki*/
"       ",
". ... .",
".. . ..",
"... ...",
".. . ..",
". ... .",
"       "};
