/* XPM */
static char * tools_xl_sel_xpm[] = {
"29 27 5 1",
" 	s gray	c black",
".	c #434348485A5A",
"X	c gray49",
"o	c gainsboro",
"O	c white",
"                             ",
" ........................... ",
" .XXXXXXXXXXXXXXXXXXXXXXXXXo ",
" .XXXXXXXXXXXXXXXXXXXXXXXXXo ",
" .XXXXXXXXXXXXXXXXXXXXXXXXXo ",
" .XXXXXXXXXXXXXXXXXXXXXXXXXo ",
" .XXXXXXXXXXXXXXXXXXXXXXXXXo ",
" .XXXXXXXXXXXXXXXXXXXXXXXXXo ",
" .XXXXXXXXXXXXXXXXXXXXXXXXXo ",
" .XXXXXXXXXXXXXXXXXXXXXXXXXo ",
" .XXXXXXXXXXXXXXXXXXXXXXXXXo ",
" .XXXXXXXXXXXXXXXXXXXXXXXXXo ",
" .XXOOOXXXXXXOOOXXXXXXOOOXXo ",
" .XXOOOOOOOOOOOOOOOOOOOOOXXo ",
" .XXOOOXXXXXXOOOXXXXXXOOOXXo ",
" .XXXXXXXXXXXXXXXXXXXXXXXXXo ",
" .XXXXXXXXXXXXXXXXXXXXXXXXXo ",
" .XXXXXXXXXXXXXXXXXXXXXXXXXo ",
" .XXXXXXXXXXXXXXXXXXXXXXXXXo ",
" .XXXXXXXXXXXXXXXXXXXXXXXXXo ",
" .XXXXXXXXXXXXXXXXXXXXXXXXXo ",
" .XXXXXXXXXXXXXXXXXXXXXXXXXo ",
" .XXXXXXXXXXXXXXXXXXXXXXXXXo ",
" .XXXXXXXXXXXXXXXXXXXXXXXXXo ",
" .XXXXXXXXXXXXXXXXXXXXXXXXXo ",
" .oooooooooooooooooooooooooo ",
"                             "};
