/* XPM */
static char * tools_pt_xpm[] = {
"29 27 3 1",
" 	s gray	c black",
".	c gray",
"X	c white",
"                             ",
" ........................... ",
" ........................... ",
" ........................... ",
" ........................... ",
" ........................... ",
" ............XXX............ ",
" ............XXX............ ",
" ............XXX............ ",
" ............XXX............ ",
" ............XXX............ ",
" ............XXX............ ",
" ......XXXXXXXXXXXXXXX...... ",
" ......XXXXXXXXXXXXXXX...... ",
" ......XXXXXXXXXXXXXXX...... ",
" ............XXX............ ",
" ............XXX............ ",
" ............XXX............ ",
" ............XXX............ ",
" ............XXX............ ",
" ............XXX............ ",
" ........................... ",
" ........................... ",
" ........................... ",
" ........................... ",
" ........................... ",
"                             "};
