/* XPM */
static char * tools_xy_sel_xpm[] = {
"29 27 5 1",
" 	s gray	c black",
".	c #434348485A5A",
"X	c gray49",
"o	c gainsboro",
"O	c white",
"                             ",
" ........................... ",
" .XXXXXXXXXXXXXXXXXXXXXXXXXo ",
" .XXXXXXXXXXXXXXXXXXXXXXXXXo ",
" .XXOOOXXXXXXXXXXXXXXXOOOXXo ",
" .XXOOOOOOOOOOOOOOOOOOOOOXXo ",
" .XXOOOXXXXXXXXXXXXXXXOOOXXo ",
" .XXXOXXXXXXXXXXXXXXXXXOXXXo ",
" .XXXOXXXXXXXXXXXXXXXXXOXXXo ",
" .XXXOXXXXXXXXXXXXXXXXXOXXXo ",
" .XXXOXXXXXXXXXXXXXXXXXOXXXo ",
" .XXXOXXXXXXXXXXXXXXXXXOXXXo ",
" .XXXOXXXXXXXXXXXXXXXXXOXXXo ",
" .XXXOXXXXXXXXXXXXXXXXXOXXXo ",
" .XXXOXXXXXXXXXXXXXXXXXOXXXo ",
" .XXXOXXXXXXXXXXXXXXXXXOXXXo ",
" .XXXOXXXXXXXXXXXXXXXXXOXXXo ",
" .XXXOXXXXXXXXXXXXXXXXXOXXXo ",
" .XXXOXXXXXXXXXXXXXXXXXOXXXo ",
" .XXXOXXXXXXXXXXXXXXXXXOXXXo ",
" .XXOOOXXXXXXXXXXXXXXXOOOXXo ",
" .XXOOOOOOOOOOOOOOOOOOOOOXXo ",
" .XXOOOXXXXXXXXXXXXXXXOOOXXo ",
" .XXXXXXXXXXXXXXXXXXXXXXXXXo ",
" .XXXXXXXXXXXXXXXXXXXXXXXXXo ",
" .oooooooooooooooooooooooooo ",
"                             "};
