/* XPM */
static char * tools_xl_xpm[] = {
"29 27 3 1",
" 	s gray	c black",
".	c gray",
"X	c white",
"                             ",
" ........................... ",
" ........................... ",
" ........................... ",
" ........................... ",
" ........................... ",
" ........................... ",
" ........................... ",
" ........................... ",
" ........................... ",
" ........................... ",
" ........................... ",
" ...XXX......XXX......XXX... ",
" ...XXXXXXXXXXXXXXXXXXXXX... ",
" ...XXX......XXX......XXX... ",
" ........................... ",
" ........................... ",
" ........................... ",
" ........................... ",
" ........................... ",
" ........................... ",
" ........................... ",
" ........................... ",
" ........................... ",
" ........................... ",
" ........................... ",
"                             "};
