/* XPM */
static char * tools_yl_sel_xpm[] = {
"29 27 5 1",
" 	s gray	c black",
".	c #434348485A5A",
"X	c gray49",
"o	c gainsboro",
"O	c white",
"                             ",
" ........................... ",
" .XXXXXXXXXXXXXXXXXXXXXXXXXo ",
" .XXXXXXXXXXXOOOXXXXXXXXXXXo ",
" .XXXXXXXXXXXOOOXXXXXXXXXXXo ",
" .XXXXXXXXXXXOOOXXXXXXXXXXXo ",
" .XXXXXXXXXXXXOXXXXXXXXXXXXo ",
" .XXXXXXXXXXXXOXXXXXXXXXXXXo ",
" .XXXXXXXXXXXXOXXXXXXXXXXXXo ",
" .XXXXXXXXXXXXOXXXXXXXXXXXXo ",
" .XXXXXXXXXXXXOXXXXXXXXXXXXo ",
" .XXXXXXXXXXXXOXXXXXXXXXXXXo ",
" .XXXXXXXXXXXOOOXXXXXXXXXXXo ",
" .XXXXXXXXXXXOOOXXXXXXXXXXXo ",
" .XXXXXXXXXXXOOOXXXXXXXXXXXo ",
" .XXXXXXXXXXXXOXXXXXXXXXXXXo ",
" .XXXXXXXXXXXXOXXXXXXXXXXXXo ",
" .XXXXXXXXXXXXOXXXXXXXXXXXXo ",
" .XXXXXXXXXXXXOXXXXXXXXXXXXo ",
" .XXXXXXXXXXXXOXXXXXXXXXXXXo ",
" .XXXXXXXXXXXXOXXXXXXXXXXXXo ",
" .XXXXXXXXXXXOOOXXXXXXXXXXXo ",
" .XXXXXXXXXXXOOOXXXXXXXXXXXo ",
" .XXXXXXXXXXXOOOXXXXXXXXXXXo ",
" .XXXXXXXXXXXXXXXXXXXXXXXXXo ",
" .oooooooooooooooooooooooooo ",
"                             "};
