/* XPM */
static char * tools_xy_ins_xpm[] = {
"29 27 3 1",
" 	s gray	c black",
".	c gray",
"X	c white",
"                             ",
" ........................... ",
" ........................... ",
" ........................... ",
" ...X.X...............X.X... ",
" ....X.X.X.X.X.X.X.X.X.X.... ",
" ...X.X...............X.X... ",
" ....X.................X.... ",
" ........................... ",
" ....X.................X.... ",
" ........................... ",
" ....X.................X.... ",
" ........................... ",
" ....X.................X.... ",
" ........................... ",
" ....X.................X.... ",
" ........................... ",
" ....X.................X.... ",
" ........................... ",
" ....X.................X.... ",
" ...X.X...............X.X... ",
" ....X.X.X.X.X.X.X.X.X.X.... ",
" ...X.X...............X.X... ",
" ........................... ",
" ........................... ",
" ........................... ",
"                             "};
