/* XPM */
static char * tools_xy_xpm[] = {
"29 27 3 1",
" 	s gray	c black",
".	c gray",
"X	c white",
"                             ",
" ........................... ",
" ........................... ",
" ........................... ",
" ...XXX...............XXX... ",
" ...XXXXXXXXXXXXXXXXXXXXX... ",
" ...XXX...............XXX... ",
" ....X.................X.... ",
" ....X.................X.... ",
" ....X.................X.... ",
" ....X.................X.... ",
" ....X.................X.... ",
" ....X.................X.... ",
" ....X.................X.... ",
" ....X.................X.... ",
" ....X.................X.... ",
" ....X.................X.... ",
" ....X.................X.... ",
" ....X.................X.... ",
" ....X.................X.... ",
" ...XXX...............XXX... ",
" ...XXXXXXXXXXXXXXXXXXXXX... ",
" ...XXX...............XXX... ",
" ........................... ",
" ........................... ",
" ........................... ",
"                             "};
