/* XPM */
static char * trash2_xpm[] = {
"20 20 4 1",
" 	c white",
".	c gray80",
"X	s gray	c black",
"o	c #5B5B62627B7B",
/*/home/rascal/oz/Ferret_gui/move_bott.xpm*/
"                    ",
"                    ",
"   ...............  ",
"   ...............  ",
"   ....XXXXXX.....  ",
"   ...Xoo....X....  ",
"   .XXXXXXXXXXXX..  ",
"   .XXXXXXXXXXXX..  ",
"   ..Xo.......X...  ",
"   ..Xo.Xo.Xo.X...  ",
"   ..Xo.Xo.Xo.X...  ",
"   ..Xo.Xo.Xo.X...  ",
"   ..Xo.Xo.Xo.X...  ",
"   ..Xo.Xo.Xo.X...  ",
"   ..Xo.Xo.Xo.X...  ",
"   ..Xo.......X...  ",
"   ...XXXXXXXX....  ",
"   ...............  ",
"   ...............  ",
"                    "};
