/* XPM */
static char * trash_sel_xpm[] = {
"20 20 6 1",
" 	c #36363B3B4A4A",
".	c gray49",
"X	c #BABABEBECCCC",
"o	s gray	c black",
"O	c #5B5B62627B7B",
"+	c gray80",
/*/home/rascal/oz/Ferret_gui/trash_sel.xpm*/
"                    ",
" ..................X",
" ..................X",
" ..................X",
" ......oooooo......X",
" .....oOO++++o.....X",
" ...oooooooooooo...X",
" ...oooooooooooo...X",
" ....oO+++++++o....X",
" ....oO+oO+oO+o....X",
" ....oO+oO+oO+o....X",
" ....oO+oO+oO+o....X",
" ....oO+oO+oO+o....X",
" ....oO+oO+oO+o....X",
" ....oO+oO+oO+o....X",
" ....oO+++++++o....X",
" .....oooooooo.....X",
" ..................X",
" ..................X",
" XXXXXXXXXXXXXXXXXXX"};
