/* XPM */
static char * trash_ins_xpm[] = {
"20 20 5 1",
" 	c white",
".	c gray80",
"X	c gray37",
"o	s gray	c black",
"O	c #5B5B62627B7B",
/*/home/rascal/oz/Ferret_gui/move_bott.xpm*/
"                    ",
" ..................X",
" ..................X",
" ..................X",
" ......o.o.o.......X",
" .....o.O....o.....X",
" ....o.o.o.o.o.o...X",
" ...o.o.o.o.o.o....X",
" ....o.............X",
" .....O.oO.oO.o....X",
" ....o.............X",
" .....O.oO.oO.o....X",
" ....o.............X",
" .....O.oO.oO.o....X",
" ....o.............X",
" .....O.......o....X",
" .....o.o.o.o......X",
" ..................X",
" ..................X",
" XXXXXXXXXXXXXXXXXXX"};
