/* XPM */
static char * trash_xpm[] = {
"20 20 5 1",
" 	c white",
".	c gray80",
"X	c gray37",
"o	s gray	c black",
"O	c #5B5B62627B7B",
/*/home/rascal/oz/Ferret_gui/move_bott.xpm*/
"                    ",
" ..................X",
" ..................X",
" ..................X",
" ......oooooo......X",
" .....oOO....o.....X",
" ...oooooooooooo...X",
" ...oooooooooooo...X",
" ....oO.......o....X",
" ....oO.oO.oO.o....X",
" ....oO.oO.oO.o....X",
" ....oO.oO.oO.o....X",
" ....oO.oO.oO.o....X",
" ....oO.oO.oO.o....X",
" ....oO.oO.oO.o....X",
" ....oO.......o....X",
" .....oooooooo.....X",
" ..................X",
" ..................X",
" XXXXXXXXXXXXXXXXXXX"};
