/* XPM */
static char * var_ins_xpm[] = {
"40 20 2 1",
" 	c #B7B7B7B7B7B7",
".	s gray	c black",
"                                        ",
"                                        ",
"                                        ",
"                          .             ",
"                        .   .           ",
"                                        ",
"                           .            ",
"                          .             ",
"                         .              ",
"               . . . .  .   .           ",
"              .   .      . .            ",
"             .     .                    ",
"            .       .                   ",
"             .     .                    ",
"            .                           ",
"             .    .                     ",
"              . .                       ",
"                                        ",
"                                        ",
"                                        "};
