/* XPM */
static char * vp_cycle_corners_in_ins_xpm[] = {
"115 23 4 1",
" 	c #36363B3B4A4A",
".	c gray59",
"X	c white",
"o	s gray	c black",
/**/
"                                                                                                                   ",
" .................................................................................................................X",
" .................................................................................................................X",
" .................................................................................................................X",
" ........o.o.o.o.o.o.o.o.o.o.o.o.o.o.o.o.o.o.o.o.o.o.o.o.o.o.o.o.o.o.o.o.o.o.o.o.o.o.o.o.o.o.o.o.o.o.o.o.o........X",
" ......o...................................................................................................o......X",
" ....o............................................................................................................X",
" ............................................................................................................o....X",
" ...o.............................................................................................................X",
" ............................................................................................................o....X",
" ...o.............................................................................................................X",
" ......................................................o.....................................................o....X",
" ...o.................................................o.o.........................................................X",
" ......................................................o.o..................................................o.....X",
" .....o.................................................o.o...............................................o.......X",
" .......o.o.o.o.o.o.o.o.o.o.o.o.o.o.o.o.o.o.o.o.o.o.o..o.o.o..o.o.o.o.o.o.o.o.o.o.o.o.o.o.o.o.o.o.o.o.o.o.........X",
" .......................................................o.o.......................................................X",
" ......................................................o.o........................................................X",
" .....................................................o.o.........................................................X",
" ......................................................o..........................................................X",
" .................................................................................................................X",
" .................................................................................................................X",
" XXXXXXXXXXXXXXXXXXXXXXXXXXXXXXXXXXXXXXXXXXXXXXXXXXXXXXXXXXXXXXXXXXXXXXXXXXXXXXXXXXXXXXXXXXXXXXXXXXXXXXXXXXXXXXXXXX"};
