/* XPM */
static char * vp_cycle_lr_out_ins_xpm[] = {
"45 23 4 1",
" 	c #E1E1E1E1E1E1",
".	c #B7B7B7B7B7B7",
"X	c #434348485A5A",
"o	s gray	c black",
/**/
"                                             ",
" ...........................................X",
" ...........................................X",
" ...........................................X",
" .......o.o.o.o.o.o.o.o.o.o.o.o.o.o.o.......X",
" .....o...............................o.....X",
" ...........................................X",
" ...o...................................o...X",
" ...........................................X",
" ...o...................................o...X",
" ...........................................X",
" ...o...............o...................o...X",
" ..................o.o......................X",
" ....o..............o.o................o....X",
" ......o.............o.o.............o......X",
" ........o.o.o.o.o..o.o.o..o.o.o.o.o........X",
" ....................o.o....................X",
" ...................o.o.....................X",
" ..................o.o......................X",
" ...................o.......................X",
" ...........................................X",
" ...........................................X",
" XXXXXXXXXXXXXXXXXXXXXXXXXXXXXXXXXXXXXXXXXXXX"};
