/* XPM */
static char * vp_cycle_lr_in_xpm[] = {
"45 23 4 1",
" 	c #434348485A5A",
".	c gray59",
"X	c white",
"o	s gray	c black",
/*black*/
"                                             ",
" ...........................................X",
" ...........................................X",
" ...........................................X",
" .......ooooooooooooooooooooooooooooo.......X",
" .....oo.............................oo.....X",
" ....o.................................o....X",
" ...o...................................o...X",
" ...o...................................o...X",
" ...o...................................o...X",
" ...o...................................o...X",
" ...o..............oo...................o...X",
" ...o..............ooo..................o...X",
" ....o..............ooo................o....X",
" .....oo.............ooo.............oo.....X",
" .......ooooooooooooooooo..oooooooooo.......X",
" ....................ooo....................X",
" ...................ooo.....................X",
" ..................ooo......................X",
" ..................oo.......................X",
" ...........................................X",
" ...........................................X",
" XXXXXXXXXXXXXXXXXXXXXXXXXXXXXXXXXXXXXXXXXXXX"};
