/* XPM */
static char * vp_cycle_corners_in_xpm[] = {
"115 23 4 1",
" 	c #36363B3B4A4A",
".	c gray59",
"X	c white",
"o	s gray	c black",
/* */
"                                                                                                                   ",
" .................................................................................................................X",
" .................................................................................................................X",
" .................................................................................................................X",
" .......oooooooooooooooooooooooooooooooooooooooooooooooooooooooooooooooooooooooooooooooooooooooooooooooooo........X",
" .....oo..................................................................................................oo......X",
" ....o......................................................................................................o.....X",
" ...o........................................................................................................o....X",
" ...o........................................................................................................o....X",
" ...o........................................................................................................o....X",
" ...o........................................................................................................o....X",
" ...o.................................................oo.....................................................o....X",
" ...o.................................................ooo....................................................o....X",
" ....o.................................................ooo..................................................o.....X",
" .....oo................................................ooo...............................................oo......X",
" .......oooooooooooooooooooooooooooooooooooooooooooooooooooo..oooooooooooooooooooooooooooooooooooooooooooo........X",
" .......................................................ooo.......................................................X",
" ......................................................ooo........................................................X",
" .....................................................ooo.........................................................X",
" .....................................................oo..........................................................X",
" .................................................................................................................X",
" .................................................................................................................X",
" XXXXXXXXXXXXXXXXXXXXXXXXXXXXXXXXXXXXXXXXXXXXXXXXXXXXXXXXXXXXXXXXXXXXXXXXXXXXXXXXXXXXXXXXXXXXXXXXXXXXXXXXXXXXXXXXXX"};
