/* XPM */
static char * vpleft_xpm[] = {
"32 32 3 1",
" 	c gray80",
".	s gray	c black",
"X	c gray59",
/*gray*/
"                                ",
"                                ",
"                                ",
"  ...........................   ",
"  .XXXXXXXXXXXX.            .   ",
"  .XXXXXXXXXXXX.            .   ",
"  .XXXXXXXXXXXX.            .   ",
"  .XXXXXXXXXXXX.            .   ",
"  .XXXXXXXXXXXX.            .   ",
"  .XXXXXXXXXXXX.            .   ",
"  .XXXXXXXXXXXX.            .   ",
"  .XXXXXXXXXXXX.            .   ",
"  .XXXXXXXXXXXX.            .   ",
"  .XXXXXXXXXXXX.            .   ",
"  .XXXXXXXXXXXX.            .   ",
"  .XXXXXXXXXXXX.            .   ",
"  .XXXXXXXXXXXX.            .   ",
"  .XXXXXXXXXXXX.            .   ",
"  .XXXXXXXXXXXX.            .   ",
"  .XXXXXXXXXXXX.            .   ",
"  .XXXXXXXXXXXX.            .   ",
"  .XXXXXXXXXXXX.            .   ",
"  .XXXXXXXXXXXX.            .   ",
"  .XXXXXXXXXXXX.            .   ",
"  .XXXXXXXXXXXX.            .   ",
"  .XXXXXXXXXXXX.            .   ",
"  .XXXXXXXXXXXX.            .   ",
"  ...........................   ",
"                                ",
"                                ",
"                                ",
"                                "};
