/* XPM */
static char * vplower_xpm[] = {
"32 32 3 1",
" 	c gray80",
".	s gray	c black",
"X	c gray59",
/*gray59*/
"                                ",
"                                ",
"                                ",
"  ...........................   ",
"  .                         .   ",
"  .                         .   ",
"  .                         .   ",
"  .                         .   ",
"  .                         .   ",
"  .                         .   ",
"  .                         .   ",
"  .                         .   ",
"  .                         .   ",
"  .                         .   ",
"  .                         .   ",
"  ...........................   ",
"  .XXXXXXXXXXXXXXXXXXXXXXXXX.   ",
"  .XXXXXXXXXXXXXXXXXXXXXXXXX.   ",
"  .XXXXXXXXXXXXXXXXXXXXXXXXX.   ",
"  .XXXXXXXXXXXXXXXXXXXXXXXXX.   ",
"  .XXXXXXXXXXXXXXXXXXXXXXXXX.   ",
"  .XXXXXXXXXXXXXXXXXXXXXXXXX.   ",
"  .XXXXXXXXXXXXXXXXXXXXXXXXX.   ",
"  .XXXXXXXXXXXXXXXXXXXXXXXXX.   ",
"  .XXXXXXXXXXXXXXXXXXXXXXXXX.   ",
"  .XXXXXXXXXXXXXXXXXXXXXXXXX.   ",
"  .XXXXXXXXXXXXXXXXXXXXXXXXX.   ",
"  ...........................   ",
"                                ",
"                                ",
"                                ",
"                                "};
