/* XPM */
static char * vpupper_xpm[] = {
"32 32 3 1",
" 	c gray80",
".	s gray	c black",
"X	c gray59",
/*.*/
"                                ",
"                                ",
"                                ",
"  ...........................   ",
"  .XXXXXXXXXXXXXXXXXXXXXXXXX.   ",
"  .XXXXXXXXXXXXXXXXXXXXXXXXX.   ",
"  .XXXXXXXXXXXXXXXXXXXXXXXXX.   ",
"  .XXXXXXXXXXXXXXXXXXXXXXXXX.   ",
"  .XXXXXXXXXXXXXXXXXXXXXXXXX.   ",
"  .XXXXXXXXXXXXXXXXXXXXXXXXX.   ",
"  .XXXXXXXXXXXXXXXXXXXXXXXXX.   ",
"  .XXXXXXXXXXXXXXXXXXXXXXXXX.   ",
"  .XXXXXXXXXXXXXXXXXXXXXXXXX.   ",
"  .XXXXXXXXXXXXXXXXXXXXXXXXX.   ",
"  .XXXXXXXXXXXXXXXXXXXXXXXXX.   ",
"  ...........................   ",
"  .                         .   ",
"  .                         .   ",
"  .                         .   ",
"  .                         .   ",
"  .                         .   ",
"  .                         .   ",
"  .                         .   ",
"  .                         .   ",
"  .                         .   ",
"  .                         .   ",
"  .                         .   ",
"  ...........................   ",
"                                ",
"                                ",
"                                ",
"                                "};
