/* XPM */
static char * welch_xpm[] = {
"40 20 3 1",
" 	c gray80",
".	s gray	c black",
"X	c red",
/*X*/
"                                        ",
"                                        ",
" ..             .....                   ",
"  .           ..     ..                 ",
"  .          .         .                ",
"  .         .           .               ",
"  .        .             .              ",
"  .    XXX.XXX    XX      .X            ",
"  .     X.X X      X       .            ",
"  .     X.X X  XX  X   XX  .X           ",
" ..     . X X X X  X  X X  X.X          ",
"  .     .X X  XX   X  X    X.X          ",
"  .    . X X   XX XXX  XX XX .X         ",
"  .    .                     .          ",
"  .   .                       .         ",
"  .   .                       .         ",
"  .  .                         .        ",
" ....................................   ",
"  .                .                .   ",
"                                        "};
