/* XPM */
static char * welchIns_xpm[] = {
"40 20 3 1",
" 	c gray",
".	s gray	c black",
"X	c red",
"                                        ",
"                                        ",
" .              . . .                   ",
"  .           .       .                 ",
"             .         .                ",
"  .                                     ",
"           .             .              ",
"  .    XXX XXX    XX       X            ",
"        X.X X      X       .            ",
"  .     X X X  XX  X   XX  XX           ",
" .      . X X X X  X  X X  X.X          ",
"  .      X X  XX   X  X    X X          ",
"       . X X   XX XXX  XX XX .X         ",
"  .                                     ",
"      .                       .         ",
"  .                                     ",
"     .                         .        ",
" .. . . . . . . . . . . . . . . . . .   ",
"  .                .                .   ",
"                                        "};
