/* XPM */
static char * weq_xpm[] = {
"40 20 3 1",
" 	c gray80",
".	s gray	c black",
"X	c red",
/*X*/
"                                        ",
"           ...  ..       ...            ",
"         .. ..   .       . .            ",
"         .       .       . .            ",
"         .       .XXX XXX. . XXXX  XXX  ",
"        ..       . X X X . .  X X X   X ",
"        ..       . X X X . .  XX  X   X ",
"        ..       . X X X . .  X   X   X ",
"        ..      ..  X X  . .  X X X   X ",
"        ..       .  X X  . . XXXX  XXX  ",
"        ..       .       . .        X   ",
"        ..       .       . .         X  ",
"        ..       .       . .            ",
"        ..       .       . .            ",
"        .        . ....... .......      ",
"        .        .                      ",
"    .. ..       ....................    ",
"    ...          .        .        .    ",
"                                        ",
"                                        "};
