/* XPM */
static char * weq_ins_xpm[] = {
"40 20 5 1",
" 	c gray",
".	s gray	c black",
"X	c red",
"o	c #B7B7B7B7B7B7",
"O	c #36363B3B4A4A",
"                                        ",
"            .   .         .             ",
"          .  .   .       . .            ",
"         .                              ",
"                 .XXX XXX. . XXXX  XXX  ",
"        .          X X X      XoX X   X ",
"         .       . X X X . .  XX  X   X ",
"        .          X X X      X   X   X ",
"         .      ..  X X  . .  X X X   X ",
"        .           X X      XXXX  XXX  ",
"         .       .       . .        X   ",
"        .                            X  ",
"         .       .       . .            ",
"        .                               ",
"                 . . . . . . O O O      ",
"        .                               ",
"     . .        .. . . . . . . . . .    ",
"    . .          .        .        .    ",
"                                        ",
"                                        "};
